<?xml version="1.0" encoding="utf-8"?>
<!-- Generator: Adobe Illustrator 15.0.0, SVG Export Plug-In . SVG Version: 6.00 Build 0)  -->
<!DOCTYPE svg PUBLIC "-//W3C//DTD SVG 1.1//EN" "http://www.w3.org/Graphics/SVG/1.1/DTD/svg11.dtd">
<svg version="1.1" id="Layer_1" xmlns="http://www.w3.org/2000/svg" xmlns:xlink="http://www.w3.org/1999/xlink" x="0px" y="0px"
	 width="82.167px" height="82.333px" viewBox="-22.792 -27.667 82.167 82.333"
	 enable-background="new -22.792 -27.667 82.167 82.333" xml:space="preserve">
<path fill="#0085AE" d="M18.402,53.802c-22.17,0-40.208-18.037-40.208-40.209c0-22.17,18.038-40.207,40.208-40.207
	c22.171,0,40.208,18.037,40.208,40.207C58.61,35.765,40.573,53.802,18.402,53.802 M18.402-24.839
	c-21.192,0-38.433,17.241-38.433,38.433c0,21.192,17.241,38.434,38.433,38.434c21.192,0,38.434-17.241,38.434-38.434
	C56.836-7.598,39.595-24.839,18.402-24.839"/>
<path fill="#0085AE" d="M28.734,32.299c-3.816,0-6.922-3.104-6.922-6.92c0-3.817,3.106-6.922,6.922-6.922s6.92,3.104,6.92,6.922
	C35.654,29.196,32.551,32.299,28.734,32.299 M28.734,20.28c-2.811,0-5.099,2.287-5.099,5.1c0,2.811,2.289,5.098,5.099,5.098
	s5.098-2.287,5.098-5.098C33.832,22.567,31.545,20.28,28.734,20.28"/>
<g>
	<path fill="#0085AE" d="M18.737,27.963c-8.941,0-16.215-7.273-16.215-16.215S9.795-4.467,18.737-4.467
		c8.941,0,16.216,7.274,16.216,16.216c0,3.249-0.959,6.385-2.771,9.066l-1.51-1.021c1.607-2.38,2.457-5.161,2.457-8.046
		c0-7.936-6.457-14.393-14.392-14.393c-7.936,0-14.393,6.457-14.393,14.393s6.457,14.393,14.393,14.393
		c1.525,0,3.027-0.238,4.465-0.707l0.564,1.734C22.147,27.696,20.455,27.963,18.737,27.963"/>
	<polygon fill="#0085AE" points="3.786,32.656 -2.929,26.06 5.012,18.058 6.305,19.342 -0.344,26.043 3.807,30.122 10.385,23.864 
		11.641,25.185 	"/>
	
		<rect x="0.222" y="15.751" transform="matrix(0.7071 0.7071 -0.7071 0.7071 15.6949 -4.5652)" fill="#0085AE" width="26.271" height="1.823"/>
</g>
</svg>
