<?xml version="1.0" encoding="utf-8"?>
<!-- Generator: Adobe Illustrator 15.0.0, SVG Export Plug-In . SVG Version: 6.00 Build 0)  -->
<!DOCTYPE svg PUBLIC "-//W3C//DTD SVG 1.1//EN" "http://www.w3.org/Graphics/SVG/1.1/DTD/svg11.dtd">
<svg version="1.1" id="Layer_1" xmlns="http://www.w3.org/2000/svg" xmlns:xlink="http://www.w3.org/1999/xlink" x="0px" y="0px"
	 width="82.167px" height="82.333px" viewBox="-22.792 -27.667 82.167 82.333"
	 enable-background="new -22.792 -27.667 82.167 82.333" xml:space="preserve">
<path fill="#0085AE" d="M18.402,53.802c-22.17,0-40.208-18.037-40.208-40.209c0-22.17,18.038-40.207,40.208-40.207
	c22.171,0,40.208,18.037,40.208,40.207C58.61,35.765,40.573,53.802,18.402,53.802 M18.402-24.839
	c-21.192,0-38.433,17.241-38.433,38.433c0,21.192,17.241,38.434,38.433,38.434c21.192,0,38.434-17.241,38.434-38.434
	C56.836-7.598,39.595-24.839,18.402-24.839"/>
<g>
	<path fill="#0085AE" d="M14.197,22.136h-3.451c-0.593,0-1.073-0.482-1.073-1.073V1.516c0-0.593,0.48-1.075,1.073-1.075h3.451
		c0.591,0,1.073,0.482,1.073,1.075v19.547C15.271,21.654,14.788,22.136,14.197,22.136 M10.746,1.599l0.083,19.464l3.368-0.084
		l-0.085-19.38H10.746z"/>
	<path fill="#0085AE" d="M26.397,22.033h-3.448c-0.593,0-1.074-0.482-1.074-1.073V1.413c0-0.593,0.481-1.075,1.074-1.075h3.448
		c0.594,0,1.075,0.482,1.075,1.075v19.547C27.473,21.55,26.991,22.033,26.397,22.033 M22.949,1.496l0.082,19.464l3.366-0.084
		l-0.082-19.38H22.949z"/>
	<path fill="#0085AE" d="M33.266,1.429H3.734c-0.725,0-1.315-0.592-1.315-1.314v-3.229c0-0.725,0.591-1.314,1.315-1.314h29.531
		c0.724,0,1.313,0.59,1.313,1.314v3.229C34.579,0.837,33.989,1.429,33.266,1.429 M33.163-3.114L3.734-3.012l0.101,3.127
		l29.328-0.101V-3.114z"/>
	<path fill="#0085AE" d="M3.463,30.503H2.69c-0.15,0-0.271-0.121-0.271-0.271V-2.842c0-0.15,0.12-0.271,0.271-0.271h0.772
		c0.149,0,0.271,0.121,0.271,0.271v33.074C3.733,30.382,3.612,30.503,3.463,30.503"/>
	<path fill="#0085AE" d="M34.316,30.614h-0.771c-0.15,0-0.271-0.122-0.271-0.271V-2.732c0-0.149,0.121-0.271,0.271-0.271h0.771
		c0.15,0,0.271,0.121,0.271,0.271v33.075C34.588,30.492,34.467,30.614,34.316,30.614"/>
	<path fill="#0085AE" d="M16.196,22.427h-7.45c-0.175,0-0.315-0.141-0.315-0.314v-1.69c0-0.174,0.141-0.315,0.315-0.315h7.45
		c0.175,0,0.315,0.142,0.315,0.315v1.69C16.512,22.287,16.371,22.427,16.196,22.427"/>
	<path fill="#0085AE" d="M28.399,22.324h-7.451c-0.174,0-0.315-0.141-0.315-0.314v-1.69c0-0.174,0.142-0.315,0.315-0.315h7.451
		c0.174,0,0.314,0.142,0.314,0.315v1.69C28.714,22.183,28.573,22.324,28.399,22.324"/>
</g>
</svg>
