<?xml version="1.0" encoding="utf-8"?>
<!-- Generator: Adobe Illustrator 15.0.0, SVG Export Plug-In . SVG Version: 6.00 Build 0)  -->
<!DOCTYPE svg PUBLIC "-//W3C//DTD SVG 1.1//EN" "http://www.w3.org/Graphics/SVG/1.1/DTD/svg11.dtd">
<svg version="1.1" id="Layer_1" xmlns="http://www.w3.org/2000/svg" xmlns:xlink="http://www.w3.org/1999/xlink" x="0px" y="0px"
	 width="82.167px" height="82.333px" viewBox="-22.792 -27.667 82.167 82.333"
	 enable-background="new -22.792 -27.667 82.167 82.333" xml:space="preserve">
<path fill="#0085AE" d="M18.402,53.802c-22.17,0-40.208-18.037-40.208-40.209c0-22.17,18.038-40.207,40.208-40.207
	c22.171,0,40.208,18.037,40.208,40.207C58.61,35.765,40.573,53.802,18.402,53.802 M18.402-24.839
	c-21.192,0-38.433,17.241-38.433,38.433c0,21.192,17.241,38.434,38.433,38.434c21.192,0,38.434-17.241,38.434-38.434
	C56.836-7.598,39.595-24.839,18.402-24.839"/>
<g>
	<defs>
		<rect id="SVGID_1_" x="-5.623" y="-0.091" width="47.83" height="27.52"/>
	</defs>
	<clipPath id="SVGID_2_">
		<use xlink:href="#SVGID_1_"  overflow="visible"/>
	</clipPath>
	<g clip-path="url(#SVGID_2_)">
		<defs>
			<rect id="SVGID_3_" x="-5.623" y="-0.091" width="47.83" height="27.52"/>
		</defs>
		<clipPath id="SVGID_4_">
			<use xlink:href="#SVGID_3_"  overflow="visible"/>
		</clipPath>
		<path clip-path="url(#SVGID_4_)" fill="#0085AE" d="M29.58,27.026c-0.259-0.004-0.733-0.129-0.903-0.453
			c-0.162-0.305,0.009-0.768,0.183-0.998c0.902-1.221,1.824-2.432,2.768-3.623c0.132-0.168,0.157-0.295,0.102-0.52
			c-0.324-1.38-1.151-2.506-2.593-3.544c-1.789-1.288-3.924-2.122-6.722-2.62c-1.37-0.246-2.752-0.369-4.106-0.369
			c-0.722,0-1.445,0.035-2.169,0.104c-3.701,0.36-6.477,1.28-8.731,2.901c-1.576,1.129-2.438,2.443-2.64,4.023l1.277,1.926
			l1.286,1.724c0.155,0.216,0.34,0.674,0.178,0.989c-0.159,0.313-0.624,0.455-0.898,0.459H-4.631c-0.225,0-0.419-0.094-0.592-0.176
			l-0.398-0.396V10.426l0.266-0.854c0.453-1.467,1.357-2.719,2.84-3.938c2.314-1.905,5.094-3.223,9.01-4.269
			c3.669-0.982,7.505-1.461,11.723-1.461l1.341,0.016c3.526,0.085,6.731,0.494,9.8,1.252c3.503,0.863,6.2,1.982,8.485,3.527
			c1.455,0.98,3.222,2.394,3.995,4.641c0.227,0.648,0.344,1.322,0.35,1.943c0.02,3.74,0.018,7.482,0.016,11.226L42.2,26.022
			c0,0.719-0.293,1.012-1.015,1.012l-4.759,0.005L29.58,27.026z M5.224,25.409l-9.237-12.211v12.211H5.224z M40.6,25.407V12.83
			l-9.621,12.577H40.6z M8.342,13.356c-1.835,0.688-3.093,1.367-4.17,2.248c-0.917,0.754-1.794,1.633-1.984,2.965l1.287,1.887
			c0.406-1.172,1.118-2.206,2.163-3.148c0.954-0.857,2.1-1.566,3.706-2.291l-0.378-0.088L8.342,13.356z M27.406,15.44
			c2.17,0.693,4.447,2.047,5.589,4.709c0,0,0.928-1.207,1.297-1.715c-0.1-1.006-0.455-1.68-1.065-2.316
			c-1.386-1.448-3.18-2.26-4.941-2.895L27.406,15.44z M7.029,10.012c-1.441,0.521-3.215,1.274-4.733,2.501
			c-0.885,0.716-1.832,1.632-2.142,3.009c-0.077,0.346-0.045,0.529,0.123,0.721c0.244,0.275,0.46,0.57,0.685,0.881
			c1.471-2.95,4.255-4.205,6.797-5.271L7.029,10.012z M29.729,12.063c2.176,0.938,4.575,2.151,5.822,4.726
			c0.241-0.321,0.393-0.513,0.556-0.692c0.188-0.205,0.228-0.41,0.147-0.753c-0.188-0.788-0.58-1.487-1.201-2.136
			c-1.56-1.63-3.547-2.531-5.49-3.241l-0.692,1.767C29.319,11.897,29.526,11.973,29.729,12.063 M19.105,13.329
			c2.521,0.105,4.796,0.512,6.931,1.242l0.715-1.813c-2.324-0.636-4.771-0.972-7.646-1.056V13.329z M10.543,14.569
			c2.076-0.719,4.354-1.127,6.934-1.242v-1.625c-2.839,0.102-5.336,0.482-7.611,1.16L10.543,14.569z M4.971,6.914
			C4.238,7.231,3.52,7.538,2.824,7.897C1.791,8.43,0.482,9.188-0.49,10.335c-0.484,0.571-0.89,1.206-1.17,1.839
			c-0.371,0.833-0.193,1.625,0.48,2.225c1.587-3.352,4.749-4.727,7.621-5.894L5.692,6.6L4.971,6.914z M30.721,8.69
			c0.61,0.254,1.211,0.504,1.789,0.797c1.907,0.969,3.973,2.283,5.042,4.69c0.224-0.3,0.438-0.587,0.675-0.851
			c0.177-0.198,0.211-0.393,0.136-0.77c-0.168-0.814-0.563-1.564-1.206-2.287c-0.881-0.994-2.042-1.836-3.551-2.576
			c-0.67-0.326-1.357-0.614-2.057-0.905l-0.633-0.267L30.158,8.45L30.721,8.69z M4.208,3.741c-1.866,0.701-4.261,1.736-6.2,3.556
			c-1.057,0.987-1.664,1.972-1.917,3.091c0.207,0.581,0.453,0.915,0.703,1.243c0.412-1.026,1.066-1.962,2.022-2.858
			c1.181-1.103,2.573-2.013,4.259-2.779c0.557-0.254,1.122-0.488,1.696-0.725l0.343-0.144L4.525,3.629L4.208,3.741z M32.747,5.616
			c0.935,0.418,1.873,0.834,2.768,1.33c1.566,0.869,2.771,1.974,3.578,3.283c0.229,0.363,0.403,0.754,0.583,1.153l0.01,0.022
			l0.76-1.006c-0.171-0.936-0.574-1.683-1.229-2.424c-2.001-2.261-4.719-3.443-7.161-4.351L31.49,5.061L32.747,5.616z M19.105,10.1
			c3.195,0.098,5.988,0.506,8.53,1.241l-0.013-0.808l0.407-1.045c-2.793-0.779-5.72-1.188-8.925-1.248V10.1z M9.237,11.284
			c1.996-0.498,3.895-0.857,5.761-1.01l2.789-0.207l-0.262-1.826c-3.174,0.057-6.112,0.479-8.968,1.287
			C8.558,9.528,9.061,10.797,9.237,11.284 M8.044,8.215L9.212,7.69c1.17-0.246,2.317-0.49,3.476-0.656
			c1.171-0.168,2.352-0.264,3.537-0.356l1.556-0.132L17.521,4.61c-3.855,0.103-7.23,0.604-10.3,1.523L8.044,8.215z M19.098,6.636
			c3.59,0.082,6.807,0.548,9.824,1.425l0.506-1.984c-3.119-0.899-6.506-1.381-10.33-1.467V6.636z M6.749,4.919
			c2.943-1.233,6.581-1.798,10.726-1.912V1.505C13.3,1.577,9.555,2.11,6.048,3.135L6.749,4.919z M19.116,3.014
			c4.136,0.096,7.787,0.629,11.153,1.627l0.316-1.49c-3.562-1.041-7.32-1.58-11.47-1.646V3.014z"/>
		<path clip-path="url(#SVGID_4_)" fill="#0085AE" d="M-5.288,10.426c0.085-0.25,0.175-0.5,0.253-0.754
			c0.486-1.568,1.499-2.762,2.734-3.779C0.305,3.749,3.368,2.549,6.58,1.688c4.247-1.137,8.58-1.537,12.968-1.432
			c3.288,0.078,6.537,0.455,9.73,1.242c2.967,0.732,5.824,1.756,8.378,3.479c1.688,1.138,3.179,2.476,3.866,4.473
			c0.2,0.582,0.326,1.223,0.329,1.836c0.025,4.912,0.015,9.824,0.014,14.736c0,0.533-0.136,0.678-0.679,0.678
			c-3.868,0.003-7.735,0.006-11.604-0.01c-0.213-0.002-0.525-0.116-0.609-0.274c-0.078-0.149,0.026-0.47,0.152-0.64
			c0.905-1.219,1.825-2.426,2.765-3.618c0.207-0.263,0.236-0.503,0.166-0.804c-0.388-1.629-1.412-2.795-2.726-3.739
			c-2.054-1.479-4.396-2.237-6.856-2.677c-2.11-0.379-4.235-0.477-6.368-0.27c-3.188,0.309-6.242,1.057-8.896,2.961
			c-1.466,1.053-2.537,2.395-2.772,4.256c-0.024,0.185,0.037,0.424,0.146,0.573c0.816,1.112,1.663,2.202,2.476,3.316
			c0.125,0.171,0.229,0.489,0.151,0.639c-0.082,0.158-0.394,0.274-0.605,0.276c-3.745,0.016-7.49,0.016-11.234,0.001
			c-0.22-0.001-0.438-0.154-0.659-0.236V10.426z M40.936,11.838c-3.574,4.674-7.086,9.264-10.637,13.902h10.637V11.838z
			 M-4.348,12.201v13.543H5.897C2.475,21.219-0.909,16.746-4.348,12.201 M29.83,5.844C26.2,4.762,22.517,4.332,18.764,4.27v2.697
			C22.18,7.02,25.536,7.428,28.83,8.383C29.161,7.542,29.484,6.723,29.83,5.844 M17.812,4.266c-3.78,0.082-7.453,0.531-11.035,1.652
			c0.34,0.86,0.662,1.678,0.955,2.42C9.442,8,11.077,7.606,12.735,7.367c1.676-0.242,3.374-0.33,5.076-0.487V4.266z M37.464,14.859
			c0.356-0.466,0.657-0.913,1.014-1.31c0.295-0.33,0.293-0.668,0.213-1.06c-0.193-0.942-0.657-1.737-1.285-2.444
			c-1.022-1.15-2.286-1.982-3.652-2.65c-0.976-0.479-1.993-0.872-3.021-1.317c-0.362,0.92-0.688,1.746-1.005,2.554
			c0.903,0.394,1.79,0.729,2.63,1.155C34.576,10.914,36.558,12.301,37.464,14.859 M5.878,6.155c-1.101,0.49-2.182,0.914-3.209,1.443
			c-1.268,0.654-2.483,1.42-3.417,2.521c-0.486,0.573-0.914,1.231-1.219,1.919c-0.51,1.145-0.113,2.201,0.922,2.883
			c1.479-3.541,4.672-4.914,7.921-6.229C6.55,7.861,6.232,7.053,5.878,6.155 M17.809,1.165c-4.15,0.045-8.211,0.543-12.207,1.754
			c0.285,0.725,0.557,1.415,0.836,2.124c3.733-1.161,7.529-1.626,11.371-1.706V1.165z M-3.111,12.305
			c0.055-0.069,0.097-0.1,0.107-0.139c0.362-1.26,1.106-2.267,2.05-3.148c1.231-1.15,2.643-2.025,4.167-2.719
			c0.764-0.348,1.542-0.656,2.333-0.992C5.273,4.613,5,3.92,4.733,3.242c-0.064,0-0.097-0.008-0.124,0.001
			c-0.173,0.059-0.346,0.12-0.516,0.186c-2.305,0.86-4.498,1.918-6.316,3.621c-0.963,0.903-1.719,1.947-2.014,3.266
			c-0.037,0.164-0.056,0.391,0.028,0.514C-3.87,11.332-3.488,11.805-3.111,12.305 M30.976,2.917
			c-4.018-1.208-8.074-1.713-12.194-1.75v2.176c3.881,0.069,7.677,0.52,11.394,1.621C30.451,4.256,30.706,3.606,30.976,2.917
			 M27.096,15.318c2.554,1.196,4.819,2.653,5.801,5.509c0.58-0.757,1.138-1.466,1.668-2.195c0.091-0.125,0.106-0.346,0.081-0.51
			c-0.142-0.873-0.568-1.604-1.175-2.236c-1.482-1.549-3.373-2.381-5.38-3.088C27.762,13.629,27.439,14.448,27.096,15.318
			 M1.028,17.784c1.35-3.24,4.231-4.525,7.164-5.75c-0.334-0.843-0.652-1.646-0.97-2.447c-1.868,0.657-3.622,1.439-5.139,2.666
			c-1.049,0.85-1.945,1.815-2.257,3.197c-0.085,0.379-0.082,0.697,0.2,1.016C0.381,16.865,0.678,17.315,1.028,17.784 M39.612,12.049
			c0.367-0.479,0.749-0.959,1.104-1.455c0.072-0.101,0.088-0.278,0.061-0.406c-0.204-0.936-0.688-1.731-1.312-2.436
			c-2.046-2.314-4.76-3.513-7.604-4.557c-0.275,0.699-0.535,1.361-0.803,2.042c0.141,0.058,0.255,0.097,0.363,0.147
			c1.314,0.611,2.665,1.153,3.929,1.854c1.389,0.77,2.607,1.79,3.458,3.165C39.126,10.917,39.344,11.491,39.612,12.049
			 M3.612,21.188c0.361-1.514,1.171-2.66,2.25-3.631c1.063-0.959,2.305-1.644,3.621-2.238c-0.33-0.831-0.642-1.616-0.949-2.393
			c-1.678,0.608-3.233,1.32-4.574,2.42c-1.022,0.838-1.905,1.785-2.104,3.176c-0.017,0.115-0.045,0.271,0.013,0.349
			C2.426,19.633,3.001,20.383,3.612,21.188 M8.112,9.305c0.285,0.731,0.561,1.408,0.809,2.094c0.104,0.285,0.218,0.361,0.533,0.268
			c1.82-0.541,3.677-0.904,5.572-1.06c0.926-0.075,1.853-0.138,2.786-0.206v-2.5C14.525,7.936,11.313,8.363,8.112,9.305 M18.771,7.9
			v2.528c2.977,0.069,5.897,0.403,8.771,1.236c0.32-0.82,0.626-1.605,0.936-2.396C25.28,8.336,22.061,7.936,18.771,7.9
			 M35.477,17.454c0.297-0.387,0.561-0.783,0.879-1.131c0.297-0.324,0.317-0.663,0.225-1.057c-0.211-0.887-0.659-1.637-1.285-2.291
			c-1.635-1.709-3.713-2.646-5.926-3.435c-0.314,0.802-0.622,1.589-0.936,2.39c0.421,0.158,0.798,0.283,1.16,0.439
			C32.074,13.441,34.395,14.703,35.477,17.454 M27.2,12.533c-2.795-0.804-5.591-1.114-8.429-1.175v2.295
			c2.554,0.079,5.033,0.472,7.458,1.343C26.559,14.162,26.869,13.373,27.2,12.533 M17.812,11.356
			c-2.876,0.078-5.662,0.435-8.394,1.291c0.319,0.802,0.62,1.559,0.934,2.347c2.436-0.89,4.917-1.256,7.46-1.344V11.356z"/>
		<path clip-path="url(#SVGID_4_)" fill="#0085AE" d="M18.226,27.432c-2.014,0-4.013-0.354-5.937-1.049
			c-0.813-0.298-1.639-0.766-2.391-1.355c-0.883-0.691-1.369-1.588-1.377-2.521c-0.007-0.963,0.494-1.898,1.407-2.635
			c1.204-0.971,2.688-1.602,4.534-1.932c0.927-0.166,1.862-0.266,2.559-0.338l0.635-0.072c3.116,0.063,5.628,0.365,7.903,1.627
			c0.559,0.309,1.089,0.709,1.535,1.156c1.269,1.26,1.284,2.992,0.034,4.313c-0.858,0.91-2.003,1.566-3.497,2.004
			C21.807,27.164,19.988,27.432,18.226,27.432 M18.381,19.142c-1.584,0.017-3.021,0.191-4.266,0.523
			c-1.332,0.353-2.399,0.747-3.28,1.517c-0.467,0.405-0.713,0.852-0.713,1.29c-0.002,0.444,0.246,0.896,0.713,1.304
			c0.908,0.803,2.012,1.176,2.973,1.438c1.468,0.396,2.97,0.598,4.461,0.598c1.394,0,2.814-0.177,4.224-0.522
			c1.058-0.263,2.273-0.649,3.267-1.525c0.471-0.417,0.714-0.874,0.705-1.325c-0.009-0.43-0.252-0.851-0.703-1.22
			c-0.49-0.397-1.111-0.763-1.846-1.079C22.147,19.388,20.211,19.215,18.381,19.142"/>
		<path clip-path="url(#SVGID_4_)" fill="#0085AE" d="M17.698,17.864c3.08,0.066,5.497,0.366,7.701,1.586
			c0.528,0.293,1.03,0.672,1.459,1.098c1.146,1.142,1.138,2.674,0.027,3.849c-0.922,0.976-2.092,1.544-3.349,1.911
			c-3.731,1.091-7.461,1.092-11.134-0.241c-0.816-0.297-1.609-0.763-2.296-1.302c-1.695-1.329-1.648-3.276,0.034-4.631
			c1.284-1.035,2.79-1.578,4.381-1.863C15.77,18.047,17.037,17.945,17.698,17.864 M18.385,18.807
			c-1.221,0.012-2.803,0.121-4.356,0.533c-1.234,0.328-2.433,0.73-3.415,1.588c-1.106,0.965-1.101,2.134-0.001,3.102
			c0.896,0.788,1.981,1.202,3.106,1.506c2.94,0.795,5.898,0.807,8.852,0.079c1.236-0.306,2.432-0.735,3.41-1.601
			c1.078-0.952,1.108-2.146-0.009-3.057c-0.571-0.465-1.246-0.834-1.926-1.125C22.365,19.114,20.572,18.895,18.385,18.807"/>
	</g>
</g>
</svg>
