<?xml version="1.0" encoding="utf-8"?>
<!-- Generator: Adobe Illustrator 15.0.0, SVG Export Plug-In . SVG Version: 6.00 Build 0)  -->
<!DOCTYPE svg PUBLIC "-//W3C//DTD SVG 1.1//EN" "http://www.w3.org/Graphics/SVG/1.1/DTD/svg11.dtd">
<svg version="1.1" id="Layer_1" xmlns="http://www.w3.org/2000/svg" xmlns:xlink="http://www.w3.org/1999/xlink" x="0px" y="0px"
	 width="82.167px" height="82.333px" viewBox="-22.792 -27.667 82.167 82.333"
	 enable-background="new -22.792 -27.667 82.167 82.333" xml:space="preserve">
<path fill="#0085AE" d="M-2.75,42.787c-0.389,0-0.778-0.078-1.148-0.234c-0.73-0.307-1.296-0.879-1.595-1.611
	s-0.295-1.539,0.012-2.268l2.753-6.547l-1.699-4.596c-0.525-0.495-0.927-1.083-1.198-1.751c-0.163-0.403-3.923-9.952,1.824-17.524
	c1.68-2.213,4.846-2.647,7.06-0.967c1.415,1.074,1.882,2.561,2.904,5.82c0.182,0.581,0.384,1.225,0.614,1.941l6.091,1.004
	c0.781,0.129,1.465,0.554,1.926,1.197s0.645,1.428,0.516,2.209c-0.054,0.325-0.164,0.639-0.328,0.934l0.065,19.556
	c0,1.063-0.863,1.929-1.925,1.929c-0.961,0-2.352-0.66-2.352-1.855l-0.064-18.191l-6.689-1.229c-0.255-0.042-0.5-0.117-0.73-0.222
	c0.185,0.957,0.427,1.609,0.446,1.658c0.186,0.479,0.297,0.986,0.328,1.51l3.904,3.912c0.548,0.549,0.852,1.283,0.854,2.066v9.213
	c0,1.635-1.329,2.964-2.963,2.964c-1.634,0-2.963-1.329-2.963-2.964v-4.693l-2.911,6.924c-0.307,0.729-0.879,1.297-1.612,1.595
	C-1.992,42.712-2.371,42.787-2.75,42.787 M0.216,8.041c-0.987,0-1.962,0.443-2.603,1.288c-5.144,6.777-1.74,15.421-1.592,15.784
	c0.193,0.477,0.492,0.893,0.888,1.232l0.174,0.15l2.097,5.672l-3.025,7.193c-0.254,0.604,0.031,1.302,0.635,1.555
	c0.293,0.125,0.616,0.125,0.909,0.006c0.294-0.119,0.524-0.347,0.647-0.64l3.2-7.61c0.079-0.189,0.105-0.397,0.075-0.599
	l-0.668-4.44l3.715,2.516v8.592c0,0.655,0.533,1.189,1.188,1.189c0.655,0,1.188-0.534,1.188-1.189v-9.211
	c-0.001-0.307-0.12-0.598-0.337-0.814l-4.417-4.428l0.005-0.375c0.007-0.431-0.067-0.847-0.219-1.238
	c-0.105-0.277-0.982-2.705-0.732-5.398l0.397-4.288l1.644,5.062c0.138,0.424,0.497,0.732,0.937,0.805l8.154,1.498l0.069,19.555
	c0.113,0.088,0.378,0.197,0.577,0.197c0.083,0,0.15-0.067,0.15-0.15l-0.067-20.081l0.156-0.228c0.105-0.152,0.171-0.313,0.198-0.473
	c0.051-0.313-0.022-0.627-0.207-0.886c-0.185-0.258-0.459-0.428-0.773-0.479l-7.157-1.18l-0.167-0.514
	c-0.303-0.934-0.559-1.751-0.786-2.473C3.509,10.58,3.15,9.433,2.187,8.703C1.597,8.255,0.904,8.041,0.216,8.041 M12.545,40.017
	v0.003V40.017z"/>
<path fill="#0085AE" d="M13.954,7.206c-3.064,0-5.558-2.493-5.558-5.558S10.89-3.91,13.954-3.91c3.065,0,5.558,2.493,5.558,5.558
	S17.019,7.206,13.954,7.206 M13.954-2.135c-2.086,0-3.783,1.697-3.783,3.783s1.697,3.783,3.783,3.783s3.783-1.697,3.783-3.783
	S16.04-2.135,13.954-2.135"/>
<path fill="#0085AE" d="M27.889-6.921c0.035-0.222,0.193-0.317,0.467-0.317c0.093,0.002,0.229,0.039,0.358,0.109
	c0.19,0.102,0.347,0.245,0.498,0.397c0.334,0.334,0.626,0.827,1.162,0.801c0.601-0.028,0.864-0.677,0.933-1.187
	c0.059-0.433-0.007-0.859-0.004-1.293c0.002-0.328,0.073-0.578,0.354-0.779c0.356-0.258,0.77-0.407,1.116-0.682
	c0.406-0.322,0.646-0.725,0.701-1.24c0.033-0.319-0.297-0.592-0.593-0.592c-0.348,0-0.557,0.271-0.591,0.592
	c-0.029,0.277-0.525,0.502-0.757,0.627c-0.451,0.24-0.912,0.518-1.165,0.979c-0.24,0.437-0.264,0.935-0.239,1.421
	c0.011,0.217,0.029,0.435,0.022,0.652c-0.004,0.098-0.01,0.176-0.034,0.27c-0.011,0.037-0.022,0.074-0.034,0.11
	C30.057-6.969,30.006-7,30.076-7.034c0.099-0.027,0.199-0.055,0.298-0.08c0.163,0.089,0.196,0.09,0.099,0.004
	c-0.039-0.045-0.08-0.088-0.119-0.133c-0.06-0.066-0.119-0.133-0.181-0.197c-0.142-0.151-0.291-0.295-0.452-0.426
	c-0.361-0.287-0.763-0.504-1.228-0.547c-0.746-0.07-1.62,0.385-1.745,1.178c-0.05,0.313,0.081,0.636,0.413,0.727
	C27.441-6.43,27.839-6.604,27.889-6.921"/>
<path fill="#0085AE" d="M29.861-0.357c0.025-0.054,0.051-0.106,0.082-0.157c0.012-0.021,0.025-0.043,0.041-0.063
	c-0.043,0.052-0.043,0.053,0,0.001c0.035-0.037,0.072-0.071,0.107-0.108c0.092-0.09-0.063,0.029,0.041-0.031
	c0.057-0.034,0.114-0.069,0.176-0.1c-0.092,0.045,0.004,0,0.047-0.013c0.049-0.015,0.097-0.024,0.146-0.036
	c-0.136,0.03,0.032,0.002,0.069,0.002c0.036,0,0.202,0.032,0.069,0.001c0.049,0.011,0.097,0.025,0.146,0.037
	c0.144,0.036-0.085-0.053,0.046,0.017c0.053,0.026,0.104,0.055,0.154,0.088c0.021,0.014,0.042,0.027,0.062,0.043
	c-0.054-0.041-0.055-0.039-0.003,0.004c0.033,0.037,0.071,0.072,0.105,0.109c-0.084-0.09,0.011,0.018,0.027,0.043
	c0.014,0.023,0.102,0.211,0.051,0.084c0.158,0.4,0.65,0.605,0.99,0.262c0.461-0.467,0.448-1.086,0.428-1.696
	c-0.002-0.065-0.004-0.132-0.002-0.197c0.002-0.054,0.039-0.141,0-0.024c0.02-0.058,0.033-0.123,0.047-0.182
	c0.025-0.063,0.021-0.06-0.006,0.01c0.013-0.027,0.026-0.055,0.041-0.082c0.031-0.055,0.071-0.104,0.008-0.028
	c0.035-0.042,0.16-0.12,0.031-0.05c0.146-0.08-0.062,0.004,0.035-0.018c-0.094,0.01-0.107,0.014-0.041,0.012
	c-0.09-0.014-0.102-0.013-0.035,0.004c0.297,0.088,0.658-0.105,0.729-0.412c0.072-0.318-0.096-0.635-0.414-0.729
	c-0.754-0.223-1.371,0.428-1.525,1.114c-0.07,0.308-0.043,0.608-0.037,0.92c0.002,0.078,0.002,0.155-0.002,0.233
	c-0.002,0.033-0.006,0.066-0.008,0.101c0.002-0.051,0.016-0.076,0-0.011c-0.007,0.031-0.016,0.063-0.022,0.094
	c-0.021,0.104,0.032-0.04,0,0.014c-0.017,0.025-0.033,0.055-0.048,0.082c-0.034,0.066,0.086-0.093-0.016,0.01L32.37-0.75
	c-0.291-0.738-0.942-1.257-1.749-1.294c-0.729-0.034-1.48,0.427-1.782,1.09c-0.128,0.281-0.09,0.65,0.212,0.809
	C29.311-0.006,29.725-0.055,29.861-0.357"/>
<path fill="#0085AE" d="M36.701-8.79c0.084-0.137-0.054,0.037,0.016-0.027c0.004-0.004,0.078-0.075,0.078-0.076
	c-0.073,0.054-0.084,0.062-0.034,0.025c0.021-0.014,0.041-0.025,0.062-0.039c0.022-0.013,0.086-0.031,0.096-0.05
	c-0.084,0.035-0.098,0.042-0.038,0.021c0.022-0.008,0.047-0.016,0.069-0.022c0.026-0.007,0.094-0.008,0.108-0.024
	c-0.096,0.012-0.112,0.015-0.047,0.008c0.019-0.001,0.037-0.002,0.056-0.004c0.043-0.002,0.086,0.002,0.129,0.003
	c0.123,0-0.121-0.03-0.011-0.003c0.048,0.011,0.097,0.021,0.144,0.035c0.119,0.039,0.002,0.024-0.006-0.006
	c0.004,0.014,0.108,0.063,0.125,0.072c0.094,0.055-0.084-0.09-0.006-0.003c0.018,0.019,0.1,0.13,0.053,0.048
	c-0.053-0.089,0.035,0.063,0.045,0.077c0.039,0.062,0.078,0.117,0.123,0.174c0.229,0.296,0.595,0.421,0.957,0.319
	c0.34-0.096,0.605-0.396,0.719-0.721c0.097-0.276,0.064-0.578,0.066-0.864c0-0.146-0.029,0.057,0.008-0.054
	c0.021-0.063,0.018-0.058-0.008,0.016c0.035-0.057,0.03-0.053-0.014,0.008c0.01-0.011,0.021-0.021,0.031-0.033
	c-0.064,0.045-0.069,0.051-0.016,0.016c-0.043,0.027-0.09,0.041-0.143,0.039c-0.089-0.016-0.102-0.014-0.037,0.008
	c0.289,0.113,0.662-0.125,0.729-0.414c0.078-0.34-0.104-0.605-0.414-0.727c-0.346-0.138-0.742,0.017-0.987,0.274
	c-0.256,0.269-0.337,0.619-0.334,0.981c0.001,0.074,0.006,0.15,0.006,0.227c0,0.038-0.001,0.075-0.002,0.113
	c-0.006,0.072-0.006,0.074,0,0.01c-0.019,0.063-0.015,0.059,0.015-0.014c-0.035,0.055-0.029,0.053,0.017-0.006
	c-0.021,0.023-0.041,0.045-0.063,0.064l0.049-0.041c0.078-0.027,0.088-0.031,0.025-0.013c0.096-0.027,0.182-0.017,0.26,0.028
	c0.037,0.021,0.065,0.051,0.086,0.088c-0.019-0.024-0.035-0.051-0.051-0.076c-0.072-0.115-0.148-0.229-0.244-0.327
	c-0.727-0.759-2.095-0.593-2.638,0.293c-0.162,0.265-0.065,0.662,0.212,0.81C36.18-8.424,36.527-8.507,36.701-8.79"/>
<path fill="#0085AE" d="M42.404,44.741H-6.708c-0.49,0-0.887-0.397-0.887-0.888c0-0.489,0.397-0.887,0.887-0.887h49.112
	c0.489,0,0.887,0.397,0.887,0.887C43.291,44.343,42.894,44.741,42.404,44.741"/>
<path fill="#0085AE" d="M46.074,30.57h-23.98c-0.491,0-0.889-0.398-0.889-0.888s0.397-0.888,0.889-0.888h23.98
	c0.49,0,0.888,0.398,0.888,0.888S46.564,30.57,46.074,30.57"/>
<path fill="#0085AE" d="M46.074,36.02h-23.98c-0.491,0-0.889-0.397-0.889-0.888c0-0.489,0.397-0.887,0.889-0.887h23.98
	c0.49,0,0.888,0.397,0.888,0.887C46.962,35.623,46.564,36.02,46.074,36.02"/>
<path fill="#0085AE" d="M46.074,39.291h-23.98c-0.491,0-0.889-0.398-0.889-0.888s0.397-0.888,0.889-0.888h23.98
	c0.49,0,0.888,0.398,0.888,0.888S46.564,39.291,46.074,39.291"/>
<path fill="#0085AE" d="M24.273,44.741c-0.49,0-0.887-0.397-0.887-0.888v-15.26c0-0.49,0.396-0.889,0.887-0.889
	s0.887,0.398,0.887,0.889v15.26C25.16,44.343,24.764,44.741,24.273,44.741"/>
<path fill="#0085AE" d="M43.895,44.231c-0.49,0-0.887-0.397-0.887-0.887V28.592c0-0.489,0.396-0.888,0.887-0.888
	s0.887,0.398,0.887,0.888v14.752C44.781,43.833,44.385,44.231,43.895,44.231"/>
<path fill="#0085AE" d="M49.933,9.307h-13.08c-2.894,0-5.248-2.354-5.248-5.248c0-2.606,1.911-4.776,4.405-5.181
	c0.408-3.711,3.563-6.607,7.383-6.607c3.818,0,6.973,2.896,7.383,6.607c2.494,0.404,4.404,2.574,4.404,5.181
	C55.18,6.953,52.826,9.307,49.933,9.307 M43.393-5.954c-3.117,0-5.653,2.535-5.653,5.652c0,0.49-0.397,0.887-0.887,0.887
	c-1.915,0-3.474,1.559-3.474,3.474c0,1.914,1.559,3.474,3.474,3.474h13.08c1.915,0,3.473-1.56,3.473-3.474
	c0-1.915-1.558-3.474-3.473-3.474c-0.49,0-0.888-0.396-0.888-0.887C49.045-3.418,46.51-5.954,43.393-5.954"/>
<path fill="#0085AE" d="M18.402,53.802c-22.17,0-40.208-18.037-40.208-40.209c0-22.17,18.038-40.207,40.208-40.207
	c22.171,0,40.208,18.037,40.208,40.207C58.61,35.765,40.573,53.802,18.402,53.802 M18.402-24.839
	c-21.192,0-38.433,17.241-38.433,38.433c0,21.192,17.241,38.434,38.433,38.434c21.192,0,38.434-17.241,38.434-38.434
	C56.836-7.598,39.595-24.839,18.402-24.839"/>
</svg>
