<?xml version="1.0" encoding="utf-8"?>
<!-- Generator: Adobe Illustrator 15.0.0, SVG Export Plug-In . SVG Version: 6.00 Build 0)  -->
<!DOCTYPE svg PUBLIC "-//W3C//DTD SVG 1.1//EN" "http://www.w3.org/Graphics/SVG/1.1/DTD/svg11.dtd">
<svg version="1.1" id="Layer_1" xmlns="http://www.w3.org/2000/svg" xmlns:xlink="http://www.w3.org/1999/xlink" x="0px" y="0px"
	 width="82.167px" height="82.333px" viewBox="-22.792 -27.667 82.167 82.333"
	 enable-background="new -22.792 -27.667 82.167 82.333" xml:space="preserve">
<path fill="#0085AE" d="M18.402,53.802c-22.17,0-40.208-18.037-40.208-40.209c0-22.17,18.038-40.207,40.208-40.207
	c22.171,0,40.208,18.037,40.208,40.207C58.61,35.765,40.573,53.802,18.402,53.802 M18.402-24.839
	c-21.192,0-38.433,17.241-38.433,38.433c0,21.192,17.241,38.434,38.433,38.434c21.192,0,38.434-17.241,38.434-38.434
	C56.836-7.598,39.595-24.839,18.402-24.839"/>
<g>
	<path fill="#0085AE" d="M31.485,33.646H5.099c-0.647,0-1.175-0.473-1.175-1.053v-2.586c0-0.58,0.527-1.053,1.175-1.053h26.387
		c0.647,0,1.175,0.473,1.175,1.053v2.586C32.66,33.173,32.133,33.646,31.485,33.646 M31.395,30.007L5.099,30.089l0.091,2.504
		l26.205-0.08V30.007z"/>
	<path fill="#0085AE" d="M12.379,29.984H9.295c-0.529,0-0.96-0.385-0.96-0.857V13.474c0-0.475,0.431-0.86,0.96-0.86h3.084
		c0.527,0,0.958,0.386,0.958,0.86v15.653C13.337,29.599,12.906,29.984,12.379,29.984 M9.295,13.54l0.074,15.586l3.01-0.068
		L12.303,13.54H9.295z"/>
	<path fill="#0085AE" d="M20.114,29.984h-3.083c-0.528,0-0.959-0.385-0.959-0.857V13.474c0-0.475,0.431-0.86,0.959-0.86h3.083
		c0.529,0,0.96,0.386,0.96,0.86v15.653C21.074,29.599,20.644,29.984,20.114,29.984 M17.031,13.54l0.074,15.586l3.009-0.068
		L20.04,13.54H17.031z"/>
	<path fill="#0085AE" d="M27.851,29.984h-3.082c-0.528,0-0.96-0.385-0.96-0.857V13.474c0-0.475,0.432-0.86,0.96-0.86h3.082
		c0.53,0,0.96,0.386,0.96,0.86v15.653C28.811,29.599,28.381,29.984,27.851,29.984 M24.769,13.54l0.074,15.586l3.008-0.068
		L27.777,13.54H24.769z"/>
	<path fill="#0085AE" d="M31.485,13.644H5.099c-0.647,0-1.175-0.473-1.175-1.052v-2.585c0-0.58,0.527-1.053,1.175-1.053h26.387
		c0.647,0,1.175,0.473,1.175,1.053v2.585C32.66,13.171,32.133,13.644,31.485,13.644 M31.395,10.007L5.099,10.089l0.091,2.503
		l26.205-0.081V10.007z"/>
	<path fill="#0085AE" d="M31.756,10.088H4.828c-0.242,0-0.463-0.124-0.569-0.321C4.153,9.571,4.182,9.34,4.332,9.17L17.525-5.747
		c0.119-0.135,0.289-0.225,0.496-0.217c0.188,0,0.367,0.078,0.487,0.207L32.243,9.159c0.156,0.171,0.188,0.404,0.085,0.604
		C32.224,9.961,32.002,10.088,31.756,10.088 M6.136,8.954h24.278L18.03-4.495L6.136,8.954z"/>
</g>
</svg>
