<?xml version="1.0" encoding="utf-8"?>
<!-- Generator: Adobe Illustrator 15.0.0, SVG Export Plug-In . SVG Version: 6.00 Build 0)  -->
<!DOCTYPE svg PUBLIC "-//W3C//DTD SVG 1.1//EN" "http://www.w3.org/Graphics/SVG/1.1/DTD/svg11.dtd">
<svg version="1.1" id="Layer_1" xmlns="http://www.w3.org/2000/svg" xmlns:xlink="http://www.w3.org/1999/xlink" x="0px" y="0px"
	 width="82.167px" height="82.333px" viewBox="-22.792 -27.667 82.167 82.333"
	 enable-background="new -22.792 -27.667 82.167 82.333" xml:space="preserve">
<path fill="#0085AE" d="M18.402,53.802c-22.17,0-40.208-18.037-40.208-40.209c0-22.17,18.038-40.207,40.208-40.207
	c22.171,0,40.208,18.037,40.208,40.207C58.61,35.765,40.573,53.802,18.402,53.802 M18.402-24.839
	c-21.192,0-38.433,17.241-38.433,38.433c0,21.192,17.241,38.434,38.433,38.434c21.192,0,38.434-17.241,38.434-38.434
	C56.836-7.598,39.595-24.839,18.402-24.839"/>
<g>
	<path fill="#0085AE" d="M40.806,21.929c0-3.119-5.033-14.533-5.672-15.81c-0.142-0.284-0.354-0.425-0.638-0.425
		s-0.567,0.141-0.639,0.425c-0.566,1.276-5.672,12.62-5.672,15.81c0,3.262,2.482,5.885,5.601,6.24v6.594h-5.175v-1.418
		c1.063-0.354,1.844-1.277,1.844-2.481c0-1.134-1.488-4.468-1.914-5.459c-0.143-0.284-0.354-0.425-0.639-0.425
		s-0.566,0.141-0.638,0.425c-0.426,0.991-1.915,4.395-1.915,5.459c0,1.206,0.78,2.198,1.915,2.481v1.418H21.38v-6.24
		c2.978-0.354,5.316-2.906,5.316-5.955c0-2.978-4.82-13.825-5.388-15.102c-0.141-0.283-0.354-0.426-0.638-0.426
		s-0.567,0.143-0.639,0.426c-0.566,1.205-5.388,12.053-5.388,15.102c0,3.119,2.339,5.672,5.317,5.955v6.24H14.36v-1.418
		c1.064-0.354,1.845-1.277,1.845-2.481c0-1.134-1.489-4.468-1.916-5.459c-0.141-0.284-0.354-0.425-0.638-0.425
		s-0.566,0.141-0.638,0.425c-0.425,0.991-1.914,4.395-1.914,5.459c0,1.206,0.779,2.198,1.914,2.481v1.418H5.498v-9.572
		c4.184-0.354,7.444-3.828,7.444-8.082c0-4.467-3.616-8.153-8.153-8.153c-4.537-0.001-8.153,3.687-8.153,8.153
		c0,4.254,3.262,7.728,7.444,8.082v9.572h-5.389c-0.425,0-0.709,0.283-0.709,0.709s0.284,0.709,0.709,0.709h41.335
		c0.425,0,0.709-0.283,0.709-0.709s-0.284-0.709-0.709-0.709h-4.821v-6.594C38.324,27.814,40.807,25.121,40.806,21.929
		L40.806,21.929z M4.08,19.59v0.567l-2.481-2.198c-0.284-0.284-0.709-0.213-0.993,0.07c-0.283,0.284-0.213,0.709,0.071,0.993
		L4.08,22v1.772c-3.332-0.354-6.026-3.19-6.026-6.664c0-3.687,2.978-6.735,6.735-6.735s6.735,2.978,6.735,6.735
		c0,3.474-2.624,6.31-6.026,6.664v-3.827l3.687-3.263c0.283-0.283,0.354-0.709,0.071-0.992c-0.284-0.283-0.709-0.354-0.993-0.071
		l-3.97,3.474C4.15,19.236,4.08,19.449,4.08,19.59z M12.375,30.863c0-0.426,0.496-1.844,1.135-3.402
		c0.638,1.559,1.134,2.977,1.134,3.402c0,0.639-0.496,1.135-1.134,1.135C12.871,31.998,12.375,31.501,12.375,30.863 M20.6,25.545
		c-0.425,0-0.709,0.284-0.709,0.709v0.851c-2.198-0.354-3.9-2.269-3.9-4.537c0-1.985,2.907-9.075,4.609-13.045
		c1.701,3.899,4.608,11.06,4.608,13.045c0,2.269-1.701,4.184-3.899,4.537v-0.851C21.309,25.83,20.953,25.545,20.6,25.545z
		 M26.696,30.863c0-0.426,0.496-1.844,1.134-3.402c0.64,1.559,1.136,2.977,1.136,3.402c0,0.639-0.496,1.135-1.136,1.135
		C27.192,31.998,26.696,31.501,26.696,30.863 M34.496,25.049c-0.426,0-0.71,0.284-0.71,0.71v0.922
		c-2.34-0.355-4.183-2.341-4.183-4.822c0-2.127,3.119-9.643,4.893-13.754c1.771,4.111,4.892,11.627,4.892,13.754
		c0,2.481-1.843,4.467-4.183,4.822v-0.922C35.205,25.404,34.851,25.049,34.496,25.049z"/>
	<path fill="#0085AE" d="M24.215-9.125c-0.142,0.071-1.984,0.851-3.049,2.481c-1.063-1.631-2.977-2.481-3.119-2.481
		c-0.354-0.142-0.779,0-0.922,0.425c-0.142,0.355,0,0.78,0.426,0.922c0,0,2.694,1.135,2.978,3.262v0.568
		c0,0.354,0.354,0.638,0.709,0.638s0.709-0.284,0.709-0.709v-0.496c0.213-2.127,2.836-3.263,2.907-3.333
		c0.354-0.141,0.496-0.566,0.354-0.922C24.995-9.125,24.57-9.266,24.215-9.125z"/>
	<path fill="#0085AE" d="M30.172-2.176c0.354-0.142,0.495-0.566,0.354-0.922c-0.141-0.354-0.567-0.496-0.921-0.354
		c-0.071,0-1.418,0.638-2.27,1.771c-0.851-1.205-2.269-1.771-2.34-1.771c-0.354-0.143-0.779,0-0.922,0.425
		c-0.141,0.354,0,0.78,0.426,0.922c0,0,1.985,0.78,2.198,2.339V0.66c0,0.354,0.354,0.639,0.709,0.639
		c0.425,0,0.78-0.284,0.709-1.064C28.187-1.325,30.101-2.176,30.172-2.176z"/>
	<path fill="#0085AE" d="M38.467-7.352c-0.071,0-1.418,0.567-2.27,1.772C35.418-6.713,34.07-7.281,34-7.352
		c-0.354-0.142-0.779,0-0.922,0.426c-0.142,0.354,0,0.779,0.426,0.922c0,0,1.914,0.779,2.127,2.34v0.425
		c0,0.354,0.354,0.638,0.709,0.638c0.354,0,0.709-0.283,0.709-0.707v-0.427c0.141-1.489,2.056-2.34,2.056-2.34
		c0.354-0.142,0.496-0.567,0.354-0.923C39.246-7.352,38.82-7.494,38.467-7.352z"/>
	<path fill="#0085AE" d="M-4.002,1.085c0,1.561,1.205,2.836,2.623,2.836H12.73c1.418,0,2.623-1.275,2.623-2.836
		c0-1.205-0.709-2.197-1.63-2.623c0.141-3.191-2.979-5.246-5.531-3.828c-2.126-7.09-12.549-3.403-10.28,3.758
		C-3.15-1.254-4.002-0.19-4.002,1.085z M-1.379-0.333h0.213c0.496,0,0.852-0.566,0.639-0.992c-2.837-6.24,6.522-9.43,7.443-2.694
		C7.059-3.735,7.2-3.522,7.483-3.452c0.284,0.07,0.567,0,0.709-0.213c1.631-1.773,4.467-0.213,3.971,2.481
		c-0.071,0.425,0.212,0.78,0.638,0.851c0.639,0.07,1.063,0.708,1.063,1.418c0,0.709-0.425,1.418-1.205,1.418H-1.379
		c-0.638,0-1.206-0.638-1.206-1.418C-2.585,0.448-2.088-0.333-1.379-0.333z"/>
</g>
</svg>
