<?xml version="1.0" encoding="utf-8"?>
<!-- Generator: Adobe Illustrator 15.0.0, SVG Export Plug-In . SVG Version: 6.00 Build 0)  -->
<!DOCTYPE svg PUBLIC "-//W3C//DTD SVG 1.1//EN" "http://www.w3.org/Graphics/SVG/1.1/DTD/svg11.dtd">
<svg version="1.1" id="Layer_1" xmlns="http://www.w3.org/2000/svg" xmlns:xlink="http://www.w3.org/1999/xlink" x="0px" y="0px"
	 width="82.167px" height="82.333px" viewBox="-22.792 -27.667 82.167 82.333"
	 enable-background="new -22.792 -27.667 82.167 82.333" xml:space="preserve">
<path fill="#0085AE" d="M18.402,53.802c-22.17,0-40.208-18.037-40.208-40.209c0-22.17,18.038-40.207,40.208-40.207
	c22.171,0,40.208,18.037,40.208,40.207C58.61,35.765,40.573,53.802,18.402,53.802 M18.402-24.839
	c-21.192,0-38.433,17.241-38.433,38.433c0,21.192,17.241,38.434,38.433,38.434c21.192,0,38.434-17.241,38.434-38.434
	C56.836-7.598,39.595-24.839,18.402-24.839"/>
<g>
	<path fill="#0085AE" d="M18.712,34.905c-0.668,0-1.209-0.541-1.209-1.207V3.464c0-2.356,0.987-4.633,2.711-6.241
		c1.676-1.564,3.847-2.334,6.083-2.189c2.605,0.178,6.061,1.537,7.725,7.004c0.194,0.639-0.166,1.313-0.806,1.507
		c-0.642,0.197-1.312-0.165-1.507-0.803c-1.028-3.378-2.852-5.111-5.576-5.296c-1.584-0.114-3.089,0.441-4.27,1.544
		c-1.234,1.153-1.942,2.784-1.942,4.475v30.234C19.921,34.364,19.38,34.905,18.712,34.905"/>
	<path fill="#0085AE" d="M18.712,34.194c-0.668,0-1.209-0.541-1.209-1.207V15.607c0-2.355,0.987-4.629,2.71-6.239
		c1.675-1.565,3.836-2.347,6.084-2.19c2.605,0.178,6.061,1.536,7.725,7.004c0.194,0.637-0.166,1.313-0.806,1.508
		c-0.642,0.193-1.312-0.166-1.507-0.805c-1.028-3.377-2.852-5.111-5.576-5.296c-1.574-0.11-3.089,0.442-4.27,1.546
		c-1.234,1.153-1.942,2.784-1.942,4.473v17.379C19.921,33.653,19.38,34.194,18.712,34.194"/>
	<path fill="#0085AE" d="M18.092,34.905c-0.668,0-1.209-0.541-1.209-1.207V3.464c0-1.69-0.707-3.321-1.942-4.475
		c-1.181-1.103-2.692-1.649-4.269-1.544C7.947-2.37,6.123-0.637,5.096,2.741c-0.194,0.637-0.87,0.997-1.508,0.803
		c-0.639-0.194-1-0.868-0.805-1.507c1.663-5.467,5.118-6.826,7.725-7.004c2.232-0.159,4.408,0.624,6.082,2.189
		c1.724,1.608,2.711,3.885,2.711,6.241v30.234C19.301,34.364,18.76,34.905,18.092,34.905"/>
	<path fill="#0085AE" d="M18.092,34.194c-0.668,0-1.209-0.541-1.209-1.207V15.607c0-1.688-0.707-3.319-1.941-4.473
		c-1.182-1.104-2.695-1.658-4.27-1.546c-2.725,0.185-4.549,1.919-5.576,5.296c-0.194,0.637-0.87,0.996-1.508,0.805
		c-0.639-0.194-1-0.871-0.805-1.508c1.663-5.468,5.118-6.826,7.725-7.004c2.25-0.154,4.408,0.625,6.084,2.19
		c1.722,1.61,2.709,3.884,2.709,6.239v17.379C19.301,33.653,18.76,34.194,18.092,34.194"/>
	<path fill="#0085AE" d="M18.711,35.684c-1.028,0-10.059-0.104-10.059-3.658c0-3.557,9.03-3.66,10.059-3.66
		c1.03,0,10.061,0.104,10.061,3.66C28.771,35.581,19.741,35.684,18.711,35.684 M11.289,32.026c0.858,0.516,3.428,1.24,7.422,1.24
		c3.996,0,6.565-0.725,7.424-1.24c-0.858-0.518-3.426-1.242-7.424-1.242C14.715,30.784,12.147,31.508,11.289,32.026 M26.412,32.249
		h0.018H26.412z"/>
</g>
</svg>
