<?xml version="1.0" encoding="utf-8"?>
<!-- Generator: Adobe Illustrator 15.0.0, SVG Export Plug-In . SVG Version: 6.00 Build 0)  -->
<!DOCTYPE svg PUBLIC "-//W3C//DTD SVG 1.1//EN" "http://www.w3.org/Graphics/SVG/1.1/DTD/svg11.dtd">
<svg version="1.1" id="Layer_1" xmlns="http://www.w3.org/2000/svg" xmlns:xlink="http://www.w3.org/1999/xlink" x="0px" y="0px"
	 width="413.334px" height="166.667px" viewBox="0 0 413.334 166.667" enable-background="new 0 0 413.334 166.667"
	 xml:space="preserve">
<g>
	<defs>
		<path id="SVGID_1_" d="M252.218,87.643h20.845V76.356h-20.845V87.643z M165.808,53.358v11.704h17.548v45.989h12.699V65.062h17.552
			V53.358H165.808z M233.259,53.358v57.693h43.929V99.758h-31.32V95.77v-8.127V76.356v-4.354v-7.349h30.904V53.358H233.259z
			 M311.091,64.816h12.611c6.181,0,9.97,2.803,9.97,8.238v0.17c0,4.857-3.543,8.159-9.724,8.159h-12.857V64.816z M298.4,53.358
			v57.693h12.69v-18.46h9.972l12.362,18.46h14.839L334.17,90.449c7.335-2.724,12.362-8.575,12.362-17.882v-0.17
			c0-5.436-1.731-9.973-4.948-13.187c-3.792-3.792-9.475-5.853-16.811-5.853H298.4z M41.349,53.2l-12.94,39.225L16.458,53.358H2.855
			l19.705,58.102h11.038L46.623,73.72l13.019,37.739h11.047l19.696-58.102H77.116L65.165,92.424L52.228,53.2H41.349z M122.086,52.95
			l-24.721,58.102h12.937l17.477-42.854l17.466,42.854h13.268L133.79,52.95H122.086z M366.268,69.928v0.161
			c0,11.455,7.502,14.669,19.118,17.636c9.644,2.478,11.625,4.121,11.625,7.335v0.167c0,3.384-3.135,5.444-8.329,5.444
			c-6.589,0-12.033-2.727-17.219-7.006l-7.505,8.978c6.926,6.182,15.746,9.233,24.483,9.233c12.44,0,21.178-6.428,21.178-17.882
			v-0.171c0-10.052-6.598-14.252-18.293-17.307c-9.979-2.557-12.45-3.792-12.45-7.584v-0.158c0-2.806,2.56-5.027,7.417-5.027
			c4.866,0,9.891,2.14,15.005,5.685l6.589-9.564c-5.852-4.696-13.019-7.334-21.427-7.334
			C374.676,52.534,366.268,59.459,366.268,69.928"/>
	</defs>
	<clipPath id="SVGID_2_">
		<use xlink:href="#SVGID_1_"  overflow="visible"/>
	</clipPath>
	
		<linearGradient id="SVGID_3_" gradientUnits="userSpaceOnUse" x1="-463.626" y1="5730.2202" x2="-462.6229" y2="5730.2202" gradientTransform="matrix(-1.3179 383.5209 383.5209 1.3179 -2198064.25 170249.4063)">
		<stop  offset="0" style="stop-color:#38C2F0"/>
		<stop  offset="0.2658" style="stop-color:#38C2F0"/>
		<stop  offset="0.4848" style="stop-color:#104777"/>
		<stop  offset="0.4868" style="stop-color:#38C2F0"/>
		<stop  offset="1" style="stop-color:#045473"/>
	</linearGradient>
	<polygon clip-path="url(#SVGID_2_)" fill="url(#SVGID_3_)" points="409.822,52.535 409.614,113.275 2.651,111.876 2.86,51.136 	"/>
</g>
<path fill="#6E6F71" d="M142.542,154.786c0,0,18.486-11.693,42.082-10.414c23.595,1.28,26.827,6.688,49.167,8.722
	c23.293,2.122,36.142-6.229,36.142-6.229s-12.96,13.459-36.558,13.438c-21.509-0.019-27.698-5.761-50.943-8.41
	C158.837,149.202,142.542,154.786,142.542,154.786 M184.419,38.136c8.961,0,14.738-5.143,14.738-15.376V3.323h-6.022v19.732
	c0,6.315-3.281,9.549-8.619,9.549c-5.386,0-8.667-3.43-8.667-9.793V3.323h-6.022v19.732
	C169.828,32.994,175.507,38.136,184.419,38.136 M158.851,37.597h-6.365l-11.606-27.321l-11.604,27.321h-6.169l15.081-34.521h5.582
	L158.851,37.597z M289.369,37.597h-6.365l-11.605-27.321l-11.605,27.321h-6.168l15.08-34.521h5.582L289.369,37.597z M243.383,37.597
	h-7.101l-8.421-11.946h-2.253v-5.338h3.524c4.311,0,7.053-2.252,7.053-5.729v-0.097c0-3.673-2.645-5.682-7.1-5.682h-8.766v9.514
	v1.994v5.338v3.636v8.311h-6.023V3.323h15.277c4.309,0,7.688,1.272,9.891,3.426c1.813,1.861,2.842,4.408,2.842,7.396v0.098
	c0,5.63-3.381,9.008-8.178,10.38L243.383,37.597z"/>
</svg>
