<?xml version="1.0" encoding="utf-8"?>
<!-- Generator: Adobe Illustrator 15.0.0, SVG Export Plug-In . SVG Version: 6.00 Build 0)  -->
<!DOCTYPE svg PUBLIC "-//W3C//DTD SVG 1.1//EN" "http://www.w3.org/Graphics/SVG/1.1/DTD/svg11.dtd">
<svg version="1.1" id="Layer_1" xmlns="http://www.w3.org/2000/svg" xmlns:xlink="http://www.w3.org/1999/xlink" x="0px" y="0px"
	 width="314.367px" height="132.421px" viewBox="0 0 314.367 132.421" enable-background="new 0 0 314.367 132.421"
	 xml:space="preserve">
<g>
	<g>
		<g>
			<defs>
				<path id="SVGID_1_" d="M189.22,66.278h15.58v-8.437h-15.58V66.278z M124.64,40.655v8.748h13.115v34.37h9.491v-34.37h13.117
					v-8.748H124.64z M175.051,40.655v43.117h32.831v-8.44h-23.407v-2.979v-6.074v-8.436v-3.254v-5.492h23.097v-8.44L175.051,40.655
					L175.051,40.655z M233.22,49.218h9.426c4.619,0,7.451,2.095,7.451,6.157v0.127c0,3.629-2.648,6.098-7.269,6.098h-9.608V49.218z
					 M223.734,40.655v43.117h9.484V69.977h7.453l9.238,13.796H261l-10.533-15.396c5.482-2.037,9.239-6.41,9.239-13.365v-0.127
					c0-4.063-1.293-7.454-3.697-9.854c-2.835-2.834-7.081-4.375-12.564-4.375H223.734L223.734,40.655z M31.624,40.537l-9.67,29.315
					l-8.932-29.198H2.855l14.727,43.423h8.25l9.734-28.206l9.729,28.204h8.256l14.72-43.422h-9.916L49.423,69.85l-9.668-29.314
					L31.624,40.537L31.624,40.537z M91.964,40.35L73.489,83.773h9.668l13.062-32.027l13.054,32.027h9.916L100.711,40.35H91.964z
					 M274.456,53.039v0.121c0,8.561,5.607,10.962,14.289,13.181c7.208,1.852,8.688,3.079,8.688,5.483v0.125
					c0,2.528-2.344,4.067-6.225,4.067c-4.925,0-8.993-2.038-12.869-5.235l-5.609,6.709c5.177,4.621,11.769,6.9,18.298,6.9
					c9.298,0,15.828-4.803,15.828-13.365v-0.126c0-7.513-4.931-10.652-13.671-12.935c-7.458-1.912-9.305-2.834-9.305-5.668v-0.118
					c0-2.097,1.913-3.757,5.543-3.757c3.638,0,7.393,1.6,11.215,4.249l4.925-7.148c-4.374-3.51-9.731-5.481-16.015-5.481
					C280.741,40.04,274.456,45.215,274.456,53.039"/>
			</defs>
			<clipPath id="SVGID_2_">
				<use xlink:href="#SVGID_1_"  overflow="visible"/>
			</clipPath>
			
				<linearGradient id="SVGID_3_" gradientUnits="userSpaceOnUse" x1="-1650.4116" y1="5713.1597" x2="-1649.6616" y2="5713.1597" gradientTransform="matrix(-1.3179 383.5209 383.5209 1.3179 -2193136 625432)">
				<stop  offset="0" style="stop-color:#38C2F0"/>
				<stop  offset="0.2658" style="stop-color:#38C2F0"/>
				<stop  offset="0.4848" style="stop-color:#104777"/>
				<stop  offset="0.4868" style="stop-color:#38C2F0"/>
				<stop  offset="1" style="stop-color:#045473"/>
			</linearGradient>
			<polygon clip-path="url(#SVGID_2_)" fill="url(#SVGID_3_)" points="307.008,40.04 306.854,85.435 2.703,84.389 2.859,38.994 			
				"/>
		</g>
	</g>
</g>
<path fill="#6E6F71" d="M107.252,116.458c0,0,13.815-8.738,31.45-7.783c17.634,0.957,20.05,4.998,36.746,6.519
	c17.409,1.587,27.011-4.655,27.011-4.655s-9.685,10.061-27.322,10.043c-16.075-0.013-20.701-4.305-38.073-6.283
	C119.431,112.287,107.252,116.458,107.252,116.458 M138.549,29.279c6.697,0,11.015-3.844,11.015-11.492V3.261h-4.501v14.747
	c0,4.72-2.452,7.137-6.441,7.137c-4.025,0-6.478-2.563-6.478-7.319V3.261h-4.5v14.747C127.645,25.436,131.889,29.279,138.549,29.279
	 M119.441,28.875h-4.757L106.01,8.457l-8.673,20.419h-4.61l11.271-25.8h4.172L119.441,28.875z M216.985,28.875h-4.757l-8.673-20.419
	l-8.673,20.419h-4.61l11.27-25.799h4.172L216.985,28.875z M182.617,28.875h-5.307l-6.294-8.928h-1.683v-3.989h2.633
	c3.222,0,5.271-1.683,5.271-4.282v-0.072c0-2.746-1.976-4.247-5.306-4.247h-6.552v7.111v1.49v3.989v2.718v6.211h-4.501V3.261h11.418
	c3.22,0,5.746,0.951,7.392,2.562c1.354,1.391,2.124,3.294,2.124,5.527v0.073c0,4.208-2.526,6.732-6.112,7.758L182.617,28.875z"/>
</svg>
