<?xml version="1.0" encoding="UTF-8"?>
<svg id="Layer_1" data-name="Layer 1" xmlns="http://www.w3.org/2000/svg" viewBox="0 0 1080 1080">
  <defs>
    <style>
      .cls-1 {
        fill: none;
        stroke: #2ca6cc;
        stroke-miterlimit: 10;
        stroke-width: 2px;
      }

      .cls-2 {
        fill: #2ca6cc;
      }
    </style>
  </defs>
  <g>
    <path class="cls-2" d="M490.9,802c20.17,0,33.16-11.57,33.16-34.6v-43.74h-13.55v44.41c0,14.21-7.38,21.49-19.4,21.49s-19.5-7.72-19.5-22.04v-43.85h-13.55v44.41c0,22.37,12.78,33.94,32.84,33.94"/>
    <polygon class="cls-2" points="433.37 800.79 419.04 800.79 392.93 739.31 366.81 800.79 352.93 800.79 386.87 723.11 399.43 723.11 433.37 800.79"/>
    <polygon class="cls-2" points="727.07 800.79 712.74 800.79 686.63 739.31 660.51 800.79 646.63 800.79 680.57 723.11 693.13 723.11 727.07 800.79"/>
    <path class="cls-2" d="M623.59,800.79h-15.98l-18.95-26.89h-5.07v-12.01h7.93c9.7,0,15.87-5.07,15.87-12.89v-.22c0-8.26-5.95-12.78-15.98-12.78h-19.72v64.79h-13.55v-77.13h34.38c9.69,0,17.3,2.86,22.26,7.71,4.08,4.19,6.39,9.92,6.39,16.64v.22c0,12.67-7.6,20.27-18.4,23.36l20.83,29.2Z"/>
  </g>
  <g>
    <path class="cls-1" d="M50.83,431.84s113.24-71.63,257.78-63.79c144.54,7.84,164.33,40.96,301.18,53.43,142.68,13,221.38-38.16,221.38-38.16,0,0-79.39,82.45-223.94,82.32-131.75-.12-169.66-35.29-312.06-51.52-144.53-16.48-244.35,17.73-244.35,17.73Z"/>
    <path class="cls-2" d="M475.19,540.46s80.39-50.85,183-45.29c102.61,5.57,116.66,29.08,213.81,37.93,101.29,9.23,157.16-27.09,157.16-27.09,0,0-56.36,58.53-158.98,58.44-93.53-.08-120.45-25.05-221.53-36.57-102.61-11.7-173.47,12.58-173.47,12.58"/>
  </g>
</svg>