<?xml version="1.0" encoding="utf-8"?>
<!-- Generator: Adobe Illustrator 15.0.0, SVG Export Plug-In . SVG Version: 6.00 Build 0)  -->
<!DOCTYPE svg PUBLIC "-//W3C//DTD SVG 1.1//EN" "http://www.w3.org/Graphics/SVG/1.1/DTD/svg11.dtd">
<svg version="1.1" id="Layer_1" xmlns="http://www.w3.org/2000/svg" xmlns:xlink="http://www.w3.org/1999/xlink" x="0px" y="0px"
	 width="131.333px" height="135.333px" viewBox="0 0 131.333 135.333" enable-background="new 0 0 131.333 135.333"
	 xml:space="preserve">
<g>
	<g>
		<g>
			<g>
				<path fill="#38C2F0" d="M116.129,90.211l-14.246-7.682c-3.469-1.869-6.166-0.518-9.154,3.594
					c-6.561,9.026-9.742,10.812-17.792,6.314c-7.513-4.191-12.89-9.176-19.637-15.919c-6.747-6.747-11.729-12.125-15.92-19.637
					c-4.496-8.05-2.711-11.233,6.315-17.792c4.11-2.988,5.463-5.686,3.59-9.155l-7.679-14.249c-3.14-6.057-7.59-6.751-14.17-4.524
					c-9.077,3.073-17.863,16.182-17.42,22.405c1.303,18.182,10.407,40.027,29.351,58.971c18.942,18.945,40.788,28.047,58.969,29.35
					c6.225,0.447,19.248-8.428,22.32-17.506C122.883,97.801,122.19,93.349,116.129,90.211z"/>
				<path fill="#38C2F0" d="M73.506,35.342c-3.002,0.025-5.416,2.479-5.396,5.483c0.028,2.988,2.457,5.392,5.438,5.392
					c0.05-0.003,0.103,0,0.148,0c3.234,0,6.266,1.25,8.545,3.526c2.301,2.301,3.551,5.374,3.522,8.645
					c-0.024,3.002,2.39,5.458,5.396,5.483h0.045c2.981,0,5.41-2.407,5.436-5.395c0.053-6.213-2.333-12.043-6.708-16.422
					C85.554,37.675,79.631,35.377,73.506,35.342z M105.969,26.017c-8.663-8.662-20.327-13.424-32.438-13.36
					c-3.007,0.01-5.428,2.45-5.421,5.455c0.015,2.995,2.442,5.42,5.438,5.42c0.035-0.007,0.099-0.003,0.148,0
					c9.288,0,18.016,3.611,24.581,10.174c6.593,6.591,10.206,15.367,10.175,24.706c-0.011,3.002,2.414,5.448,5.416,5.458h0.021
					c2.994,0,5.427-2.425,5.438-5.42C119.372,46.192,114.627,34.673,105.969,26.017z"/>
			</g>
		</g>
	</g>
</g>
</svg>
