<?xml version="1.0" encoding="utf-8"?>
<!-- Generator: Adobe Illustrator 15.0.0, SVG Export Plug-In . SVG Version: 6.00 Build 0)  -->
<!DOCTYPE svg PUBLIC "-//W3C//DTD SVG 1.1//EN" "http://www.w3.org/Graphics/SVG/1.1/DTD/svg11.dtd">
<svg version="1.1" id="Layer_1" xmlns="http://www.w3.org/2000/svg" xmlns:xlink="http://www.w3.org/1999/xlink" x="0px" y="0px"
	 width="903.021px" height="867.885px" viewBox="0 0 903.021 867.885" enable-background="new 0 0 903.021 867.885"
	 xml:space="preserve">
<g>
	<g>
		<g>
			<defs>
				<rect id="SVGID_1_" x="28.318" y="20.345" width="847.491" height="847.49"/>
			</defs>
			<clipPath id="SVGID_2_">
				<use xlink:href="#SVGID_1_"  overflow="visible"/>
			</clipPath>
			<g clip-path="url(#SVGID_2_)">
				<defs>
					<path id="SVGID_3_" d="M452.06,444.068c14.979-2.642,29.964-5.283,44.945-7.924c9.284-1.641,18.568-3.273,27.854-4.914
						c6.087-1.072,12.175-2.146,18.263-3.219c7.26-1.28,14.522-2.562,21.782-3.84c9.697-1.712,19.394-3.422,29.089-5.131
						c7.629-1.344,15.256-2.689,22.883-4.036c6.777-1.193,13.564-2.389,20.341-3.584c11.859-2.094,23.72-4.182,35.581-6.274
						c8.058-1.421,16.116-2.842,24.175-4.264c5.934-1.044,11.865-2.092,17.803-3.138c5.504-0.972,11.012-1.944,16.517-2.915
						c8.05-1.418,16.104-2.838,24.153-4.258c7.201-1.27,14.404-2.541,21.604-3.809c3.5-0.617,7-1.234,10.5-1.851
						c2.434-0.432,4.872-0.862,7.307-1.29c5.084-0.896,10.164-1.789,15.25-2.689c6.145-1.082,12.284-2.164,18.43-3.249
						c3.6-0.632,7.203-1.269,10.803-1.906c2.333-0.41,4.666-0.823,7.003-1.233c3.177-0.561,6.356-1.121,9.535-1.683
						c4.479-0.788,8.955-1.578,13.43-2.366c-9.684-54.943-30.177-107.844-60.27-154.838
						c-32.368-50.548-75.584-93.98-125.892-126.708c-50.914-33.143-108.842-55.209-168.95-64.11
						c-45.848-6.79-92.751-5.902-138.336,2.439c-39.601,7.227-78.217,20.038-114.178,38.142
						c-53.832,27.102-101.668,65.711-139.456,112.674c-37.919,47.091-65.631,102.163-80.702,160.722
						c-15.15,58.86-17.226,120.785-6.425,180.58c1.112,6.156,2.355,12.271,3.718,18.321c1.37,6.063,2.863,12.06,4.476,17.995
						c1.614,5.936,3.359,11.83,5.212,17.644c1.851,5.815,3.827,11.572,5.915,17.26c2.091,5.693,4.306,11.313,6.615,16.87
						c2.316,5.559,4.746,11.055,7.288,16.473c2.539,5.43,5.186,10.785,7.934,16.072c2.758,5.278,5.616,10.49,8.579,15.634
						c2.962,5.134,6.023,10.204,9.184,15.195c3.165,4.993,6.429,9.9,9.788,14.735c3.361,4.836,6.808,9.592,10.359,14.273
						c3.542,4.674,7.189,9.271,10.914,13.79c3.725,4.519,7.55,8.938,11.457,13.284c3.905,4.35,7.892,8.617,11.972,12.788
						c4.074,4.181,8.231,8.261,12.47,12.267c4.238,3.998,8.546,7.908,12.938,11.725c4.396,3.82,8.869,7.551,13.413,11.176
						c4.546,3.645,9.157,7.171,13.847,10.613c4.687,3.447,9.441,6.789,14.266,10.029c4.89,3.297,9.853,6.501,14.874,9.588
						c5.027,3.08,10.113,6.075,15.268,8.95c5.138,2.878,10.361,5.644,15.634,8.309c5.268,2.659,10.601,5.216,15.989,7.661
						c5.381,2.442,10.817,4.787,16.309,7.008c5.495,2.223,11.043,4.33,16.636,6.324c5.59,1.997,11.226,3.869,16.916,5.625
						c5.681,1.762,11.415,3.401,17.185,4.926c5.771,1.522,11.585,2.925,17.437,4.201c5.853,1.285,11.739,2.438,17.663,3.473
						c5.924,1.037,11.883,1.938,17.881,2.715c5.987,0.78,12.008,1.426,18.063,1.957c6.052,0.52,12.124,0.916,18.226,1.176
						c6.1,0.259,12.23,0.393,18.374,0.383c6.153,0.002,12.326-0.145,18.51-0.424c6.189-0.277,12.394-0.688,18.616-1.238
						c6.227-0.547,12.457-1.247,18.706-2.078c6.247-0.838,12.511-1.807,18.767-2.923c6.389-1.143,12.722-2.416,18.988-3.825
						c6.26-1.415,12.472-2.959,18.602-4.637c6.144-1.682,12.221-3.489,18.233-5.425c6.011-1.931,11.956-3.991,17.836-6.171
						c5.866-2.184,11.681-4.488,17.399-6.917c5.755-2.431,11.41-4.976,16.989-7.629c5.588-2.679,11.12-5.446,16.541-8.334
						c5.446-2.894,10.808-5.897,16.089-9.007c5.273-3.118,10.48-6.338,15.604-9.672c5.131-3.326,10.164-6.756,15.112-10.287
						c4.957-3.534,9.841-7.173,14.616-10.901c4.779-3.735,9.48-7.572,14.094-11.496c4.598-3.933,9.123-7.946,13.543-12.058
						c4.438-4.115,8.769-8.319,13.018-12.605c4.229-4.287,8.382-8.668,12.425-13.13c4.053-4.458,8.002-9.003,11.853-13.638
						c3.864-4.623,7.614-9.33,11.264-14.111c3.646-4.781,7.212-9.639,10.644-14.568c3.32-4.734,6.519-9.537,9.638-14.405
						c3.119-4.864,6.125-9.794,9.043-14.785c1.184-2.018,2.346-4.044,3.49-6.079c1.688-3.004,3.336-6.027,4.959-9.076
						c2.699-5.107,5.311-10.266,7.818-15.484c2.496-5.223,4.895-10.51,7.184-15.842c2.286-5.32,4.482-10.695,6.549-16.127
						c2.076-5.427,4.037-10.895,5.895-16.418c1.85-5.515,3.585-11.084,5.215-16.694c1.625-5.597,3.141-11.253,4.54-16.937
						c1.394-5.683,2.669-11.416,3.831-17.179c1.168-5.761,2.208-11.559,3.145-17.389c0.905-5.825,1.717-11.692,2.393-17.577
						c0.677-5.887,1.232-11.803,1.671-17.75c0.417-5.938,0.733-11.904,0.91-17.904c0.18-5.989,0.222-12.012,0.151-18.041
						c-0.078-6.042-0.289-12.1-0.631-18.172c-0.345-6.064-0.804-12.148-1.418-18.247c-0.613-6.099-1.343-12.22-2.233-18.343
						c-0.645-4.596-1.376-9.206-2.188-13.816c-4.475,0.788-8.95,1.578-13.43,2.366c-3.179,0.562-6.358,1.122-9.535,1.683
						c-2.337,0.41-4.67,0.823-7.003,1.233c-3.6,0.638-7.203,1.274-10.803,1.906c-6.146,1.085-12.289,2.167-18.432,3.249
						c-5.086,0.9-10.166,1.792-15.248,2.689c-2.437,0.43-4.873,0.86-7.309,1.29c-3.5,0.616-6.998,1.233-10.5,1.851
						c-7.199,1.271-14.4,2.539-21.604,3.81c-8.051,1.419-16.104,2.839-24.155,4.261c-5.505,0.967-11.015,1.939-16.521,2.91
						c-5.934,1.049-11.867,2.095-17.801,3.139c-8.057,1.422-16.124,2.844-24.179,4.265c-11.861,2.092-23.722,4.182-35.579,6.273
						c-6.782,1.195-13.564,2.392-20.344,3.587c-7.625,1.346-15.254,2.689-22.885,4.037c-9.695,1.707-19.389,3.42-29.084,5.127
						c-7.258,1.281-14.522,2.563-21.78,3.842c-6.092,1.074-12.176,2.143-18.261,3.215c-9.29,1.643-18.572,3.277-27.858,4.916
						c-14.977,2.641-29.958,5.282-44.942,7.924c0.001,0.003,0.001,0.003,0.003,0.005c0.001,0.005,0,0.009-0.006,0.009
						c-0.008,0.002-0.008,0.002-0.016-0.004l-0.001-0.005c-0.002-0.006-0.001-0.011,0.002-0.015c0.001-0.002,0.003-0.002,0.01-0.002
						c0.005-0.006,0.008-0.004,0.011,0.002C452.059,444.063,452.059,444.064,452.06,444.068"/>
				</defs>
				<clipPath id="SVGID_4_">
					<use xlink:href="#SVGID_3_"  overflow="visible"/>
				</clipPath>
				<g clip-path="url(#SVGID_4_)">
					<g>
						<defs>
							<rect id="SVGID_5_" x="24.297" y="18.05" width="851.549" height="849.796"/>
						</defs>
						<clipPath id="SVGID_6_">
							<use xlink:href="#SVGID_5_"  overflow="visible"/>
						</clipPath>
						<g transform="matrix(1 0 0 1 -3.551195e-007 -7.172348e-007)" clip-path="url(#SVGID_6_)">
							
								<image overflow="visible" width="1775" height="1771" xlink:href="D23A8B50.jpg"  transform="matrix(0.48 0 0 0.48 24.2969 18.0498)">
							</image>
						</g>
					</g>
				</g>
			</g>
		</g>
	</g>
	<g opacity="0.62">
		<g>
			<defs>
				<rect id="SVGID_7_" x="28.25" y="20.246" width="847.607" height="847.64"/>
			</defs>
			<clipPath id="SVGID_8_">
				<use xlink:href="#SVGID_7_"  overflow="visible"/>
			</clipPath>
			<g clip-path="url(#SVGID_8_)">
				<defs>
					<path id="SVGID_9_" d="M452.06,444.067c14.419-4.847,28.842-9.692,43.259-14.538c8.938-3.008,17.874-6.008,26.811-9.012
						c5.86-1.97,11.719-3.939,17.58-5.908c6.99-2.349,13.977-4.698,20.967-7.045c9.331-3.139,18.666-6.276,27.997-9.412
						c7.345-2.465,14.684-4.934,22.026-7.402c6.524-2.192,13.054-4.384,19.578-6.577c11.413-3.839,22.829-7.673,34.25-11.511
						c7.752-2.607,15.51-5.215,23.268-7.821c5.709-1.917,11.422-3.839,17.132-5.759c5.302-1.781,10.601-3.563,15.9-5.344
						c7.749-2.604,15.502-5.208,23.247-7.814c6.932-2.327,13.867-4.659,20.798-6.986c3.366-1.132,6.735-2.264,10.106-3.396
						c2.34-0.787,4.688-1.577,7.03-2.365c4.892-1.643,9.785-3.285,14.677-4.934c5.916-1.984,11.824-3.971,17.737-5.96
						c3.467-1.162,6.935-2.327,10.401-3.497c2.244-0.754,4.492-1.51,6.738-2.263c3.06-1.028,6.119-2.058,9.176-3.086
						c4.314-1.446,8.621-2.896,12.932-4.342c-17.773-52.887-45.924-102.14-82.689-144.12
						c-39.541-45.154-88.754-81.657-143.378-106.517c-55.286-25.181-115.858-38.359-176.62-38.196
						c-46.349,0.121-92.596,7.994-136.426,23.042c-38.08,13.051-74.354,31.477-107.214,54.741
						c-49.188,34.826-90.731,80.138-121.093,132.211c-30.472,52.218-49.662,110.809-55.831,170.959
						c-6.203,60.461,0.979,122.004,20.576,179.517c2.017,5.925,4.159,11.786,6.409,17.563c2.258,5.791,4.629,11.501,7.11,17.127
						c2.481,5.629,5.085,11.197,7.785,16.67c2.698,5.476,5.509,10.873,8.422,16.186c2.918,5.318,5.944,10.543,9.057,15.691
						c3.119,5.153,6.342,10.227,9.663,15.204c3.322,4.989,6.737,9.892,10.242,14.709c3.515,4.81,7.117,9.535,10.816,14.181
						c3.693,4.635,7.476,9.191,11.346,13.654c3.874,4.466,7.833,8.83,11.877,13.112s8.161,8.47,12.371,12.567
						c4.199,4.094,8.491,8.098,12.848,12.01c4.357,3.914,8.8,7.711,13.31,11.426c4.511,3.722,9.09,7.346,13.746,10.862
						c4.652,3.524,9.371,6.938,14.16,10.269c4.786,3.32,9.629,6.541,14.541,9.664c4.916,3.121,9.896,6.145,14.931,9.051
						c5.036,2.924,10.124,5.725,15.275,8.429c5.147,2.71,10.347,5.306,15.602,7.79c5.325,2.529,10.712,4.959,16.137,7.264
						c5.43,2.295,10.905,4.496,16.43,6.571c5.513,2.079,11.087,4.036,16.7,5.884c5.605,1.846,11.26,3.578,16.952,5.189
						c5.685,1.613,11.411,3.123,17.173,4.501c5.765,1.376,11.564,2.634,17.392,3.772c5.825,1.139,11.678,2.149,17.566,3.037
						c5.88,0.895,11.795,1.662,17.727,2.309c5.933,0.646,11.893,1.164,17.867,1.554c5.98,0.398,11.972,0.659,17.985,0.799
						c6.014,0.146,12.04,0.146,18.085,0.021c6.037-0.121,12.088-0.383,18.154-0.761c6.06-0.388,12.125-0.903,18.196-1.555
						c6.071-0.653,12.153-1.436,18.228-2.362c6.081-0.914,12.167-1.98,18.24-3.18c6.078-1.195,12.153-2.526,18.222-3.998
						c6.073-1.471,12.131-3.092,18.188-4.845c6.051-1.762,12.101-3.655,18.12-5.691c6.149-2.083,12.222-4.284,18.205-6.614
						c5.978-2.334,11.894-4.783,17.701-7.356c5.826-2.579,11.565-5.272,17.223-8.084c5.654-2.806,11.226-5.729,16.714-8.762
						c5.476-3.034,10.884-6.181,16.177-9.435c5.324-3.262,10.537-6.623,15.659-10.076c5.127-3.481,10.183-7.045,15.11-10.708
						c4.955-3.677,9.807-7.444,14.568-11.308c4.752-3.869,9.42-7.828,13.988-11.888c4.573-4.054,9.04-8.2,13.406-12.428
						c4.379-4.233,8.664-8.558,12.83-12.96c4.166-4.403,8.242-8.902,12.222-13.467c3.959-4.576,7.834-9.219,11.592-13.945
						c3.773-4.729,7.429-9.533,10.991-14.404c3.542-4.868,6.996-9.822,10.33-14.836c3.34-5.014,6.57-10.097,9.684-15.252
						c3.133-5.148,6.141-10.361,9.032-15.633c2.894-5.271,5.696-10.607,8.354-15.994c2.578-5.176,5.022-10.404,7.383-15.68
						c2.357-5.277,4.596-10.602,6.736-15.97c0.869-2.173,1.715-4.347,2.543-6.532c1.223-3.219,2.4-6.459,3.549-9.713
						c1.912-5.453,3.722-10.945,5.425-16.479c1.688-5.536,3.271-11.12,4.739-16.733c1.47-5.603,2.839-11.246,4.069-16.922
						c1.246-5.678,2.368-11.375,3.382-17.115c1.008-5.73,1.891-11.496,2.666-17.285c0.774-5.777,1.428-11.595,1.965-17.425
						c0.531-5.827,0.938-11.687,1.226-17.559c0.295-5.87,0.461-11.761,0.517-17.661c0.026-5.897-0.047-11.82-0.255-17.737
						c-0.208-5.925-0.543-11.856-0.995-17.802c-0.473-5.936-1.052-11.881-1.769-17.842c-0.717-5.947-1.573-11.908-2.544-17.861
						c-0.977-5.961-2.088-11.92-3.334-17.873c-1.244-5.946-2.604-11.894-4.121-17.831c-1.516-5.94-3.15-11.884-4.945-17.807
						c-1.322-4.448-2.732-8.898-4.221-13.334c-4.311,1.446-8.617,2.896-12.932,4.342c-3.057,1.028-6.116,2.058-9.176,3.086
						c-2.246,0.753-4.494,1.509-6.738,2.263c-3.467,1.17-6.935,2.335-10.401,3.497c-5.913,1.989-11.825,3.976-17.739,5.962
						c-4.892,1.646-9.783,3.288-14.675,4.932c-2.344,0.79-4.69,1.578-7.032,2.366c-3.371,1.132-6.738,2.264-10.106,3.396
						c-6.933,2.33-13.864,4.659-20.798,6.988c-7.748,2.604-15.498,5.211-23.25,7.815c-5.299,1.777-10.603,3.562-15.901,5.341
						c-5.71,1.924-11.42,3.842-17.133,5.759c-7.755,2.608-15.521,5.217-23.273,7.823c-11.417,3.838-22.833,7.674-34.245,11.51
						c-6.526,2.193-13.055,4.389-19.583,6.58c-7.337,2.468-14.681,4.936-22.025,7.405c-9.334,3.134-18.664,6.272-27.996,9.407
						c-6.985,2.348-13.977,4.699-20.962,7.047c-5.864,1.97-11.719,3.934-17.578,5.902c-8.939,3.008-17.875,6.01-26.813,9.016
						c-14.417,4.846-28.834,9.689-43.258,14.537c0.003,0.003,0.003,0.003,0.004,0.005c0.001,0.003,0.001,0.005-0.005,0.009
						c-0.007,0.002-0.007,0.002-0.016,0l-0.002-0.006c-0.003-0.008-0.002-0.012,0-0.016c0.001-0.002,0.003-0.002,0.011-0.004
						c0.003-0.006,0.006-0.004,0.009,0.002C452.058,444.061,452.059,444.063,452.06,444.067"/>
				</defs>
				<clipPath id="SVGID_10_">
					<use xlink:href="#SVGID_9_"  overflow="visible"/>
				</clipPath>
				<g clip-path="url(#SVGID_10_)">
					<g>
						<defs>
							<rect id="SVGID_11_" x="24.215" y="20.099" width="851.665" height="847.823"/>
						</defs>
						<clipPath id="SVGID_12_">
							<use xlink:href="#SVGID_11_"  overflow="visible"/>
						</clipPath>
						<g transform="matrix(1 0 0 1 -3.518599e-007 -1.882963e-007)" clip-path="url(#SVGID_12_)">
							
								<image overflow="visible" width="1775" height="1767" xlink:href="D23A8B51.jpg"  transform="matrix(0.48 0 0 0.48 24.2148 20.0986)">
							</image>
						</g>
					</g>
				</g>
			</g>
		</g>
	</g>
	<g>
		<g>
			<g>
				<defs>
					<rect id="SVGID_13_" x="28.318" y="20.345" width="847.491" height="847.49"/>
				</defs>
				<clipPath id="SVGID_14_">
					<use xlink:href="#SVGID_13_"  overflow="visible"/>
				</clipPath>
				<g clip-path="url(#SVGID_14_)">
					<defs>
						<path id="SVGID_15_" d="M452.06,444.068c14.979-2.642,29.964-5.283,44.945-7.924c9.284-1.641,18.568-3.273,27.854-4.914
							c6.087-1.072,12.175-2.146,18.263-3.219c7.26-1.28,14.522-2.562,21.782-3.84c9.697-1.712,19.394-3.422,29.089-5.131
							c7.629-1.344,15.256-2.689,22.883-4.036c6.777-1.193,13.564-2.389,20.341-3.584c11.859-2.094,23.72-4.182,35.581-6.274
							c8.058-1.421,16.116-2.842,24.175-4.264c5.934-1.044,11.865-2.092,17.803-3.138c5.504-0.972,11.012-1.944,16.517-2.915
							c8.05-1.418,16.104-2.838,24.153-4.258c7.201-1.27,14.404-2.541,21.604-3.809c3.5-0.617,7-1.234,10.5-1.851
							c2.434-0.432,4.872-0.862,7.307-1.29c5.084-0.896,10.164-1.789,15.25-2.689c6.145-1.082,12.284-2.164,18.43-3.249
							c3.6-0.632,7.203-1.269,10.803-1.906c2.333-0.41,4.666-0.823,7.003-1.233c3.177-0.561,6.356-1.121,9.535-1.683
							c4.479-0.788,8.955-1.578,13.43-2.366c-9.684-54.943-30.177-107.844-60.27-154.838
							c-32.368-50.548-75.584-93.98-125.892-126.708c-50.914-33.143-108.842-55.209-168.95-64.11
							c-45.848-6.79-92.751-5.902-138.336,2.439c-39.601,7.227-78.217,20.038-114.178,38.142
							c-53.832,27.102-101.668,65.711-139.456,112.674c-37.919,47.091-65.631,102.163-80.702,160.722
							c-15.15,58.86-17.226,120.785-6.425,180.58c1.112,6.156,2.355,12.271,3.718,18.321c1.37,6.063,2.863,12.06,4.476,17.995
							c1.614,5.936,3.359,11.83,5.212,17.644c1.851,5.815,3.827,11.572,5.915,17.26c2.091,5.693,4.306,11.313,6.615,16.87
							c2.316,5.559,4.746,11.055,7.288,16.473c2.539,5.43,5.186,10.785,7.934,16.072c2.758,5.278,5.616,10.49,8.579,15.634
							c2.962,5.134,6.023,10.204,9.184,15.195c3.165,4.993,6.429,9.9,9.788,14.735c3.361,4.836,6.808,9.592,10.359,14.273
							c3.542,4.674,7.189,9.271,10.914,13.79c3.725,4.519,7.55,8.938,11.457,13.284c3.905,4.35,7.892,8.617,11.972,12.788
							c4.074,4.181,8.231,8.261,12.47,12.267c4.238,3.998,8.546,7.908,12.938,11.725c4.396,3.82,8.869,7.551,13.413,11.176
							c4.546,3.645,9.157,7.171,13.847,10.613c4.687,3.447,9.441,6.789,14.266,10.029c4.89,3.297,9.853,6.501,14.874,9.588
							c5.027,3.08,10.113,6.075,15.268,8.95c5.138,2.878,10.361,5.644,15.634,8.309c5.268,2.659,10.601,5.216,15.989,7.661
							c5.381,2.442,10.817,4.787,16.309,7.008c5.495,2.223,11.043,4.33,16.636,6.324c5.59,1.997,11.226,3.869,16.916,5.625
							c5.681,1.762,11.415,3.401,17.185,4.926c5.771,1.522,11.585,2.925,17.437,4.201c5.853,1.285,11.739,2.438,17.663,3.473
							c5.924,1.037,11.883,1.938,17.881,2.715c5.987,0.78,12.008,1.426,18.063,1.957c6.052,0.52,12.124,0.916,18.226,1.176
							c6.1,0.259,12.23,0.393,18.374,0.383c6.153,0.002,12.326-0.145,18.51-0.424c6.189-0.277,12.394-0.688,18.616-1.238
							c6.227-0.547,12.457-1.247,18.706-2.078c6.247-0.838,12.511-1.807,18.767-2.923c6.389-1.143,12.722-2.416,18.988-3.825
							c6.26-1.415,12.472-2.959,18.602-4.637c6.144-1.682,12.221-3.489,18.233-5.425c6.011-1.931,11.956-3.991,17.836-6.171
							c5.866-2.184,11.681-4.488,17.399-6.917c5.755-2.431,11.41-4.976,16.989-7.629c5.588-2.679,11.12-5.446,16.541-8.334
							c5.446-2.894,10.808-5.897,16.089-9.007c5.273-3.118,10.48-6.338,15.604-9.672c5.131-3.326,10.164-6.756,15.112-10.287
							c4.957-3.534,9.841-7.173,14.616-10.901c4.779-3.735,9.48-7.572,14.094-11.496c4.598-3.933,9.123-7.946,13.543-12.058
							c4.438-4.115,8.769-8.319,13.018-12.605c4.229-4.287,8.382-8.668,12.425-13.13c4.053-4.458,8.002-9.003,11.853-13.638
							c3.864-4.623,7.614-9.33,11.264-14.111c3.646-4.781,7.212-9.639,10.644-14.568c3.32-4.734,6.519-9.537,9.638-14.405
							c3.119-4.864,6.125-9.794,9.043-14.785c1.184-2.018,2.346-4.044,3.49-6.079c1.688-3.004,3.336-6.027,4.959-9.076
							c2.699-5.107,5.311-10.266,7.818-15.484c2.496-5.223,4.895-10.51,7.184-15.842c2.286-5.32,4.482-10.695,6.549-16.127
							c2.076-5.427,4.037-10.895,5.895-16.418c1.85-5.515,3.585-11.084,5.215-16.694c1.625-5.597,3.141-11.253,4.54-16.937
							c1.394-5.683,2.669-11.416,3.831-17.179c1.168-5.761,2.208-11.559,3.145-17.389c0.905-5.825,1.717-11.692,2.393-17.577
							c0.677-5.887,1.232-11.803,1.671-17.75c0.417-5.938,0.733-11.904,0.91-17.904c0.18-5.989,0.222-12.012,0.151-18.041
							c-0.078-6.042-0.289-12.1-0.631-18.172c-0.345-6.064-0.804-12.148-1.418-18.247c-0.613-6.099-1.343-12.22-2.233-18.343
							c-0.645-4.596-1.376-9.206-2.188-13.816c-4.475,0.788-8.95,1.578-13.43,2.366c-3.179,0.562-6.358,1.122-9.535,1.683
							c-2.337,0.41-4.67,0.823-7.003,1.233c-3.6,0.638-7.203,1.274-10.803,1.906c-6.146,1.085-12.289,2.167-18.432,3.249
							c-5.086,0.9-10.166,1.792-15.248,2.689c-2.437,0.43-4.873,0.86-7.309,1.29c-3.5,0.616-6.998,1.233-10.5,1.851
							c-7.199,1.271-14.4,2.539-21.604,3.81c-8.051,1.419-16.104,2.839-24.155,4.261c-5.505,0.967-11.015,1.939-16.521,2.91
							c-5.934,1.049-11.867,2.095-17.801,3.139c-8.057,1.422-16.124,2.844-24.179,4.265c-11.861,2.092-23.722,4.182-35.579,6.273
							c-6.782,1.195-13.564,2.392-20.344,3.587c-7.625,1.346-15.254,2.689-22.885,4.037c-9.695,1.707-19.389,3.42-29.084,5.127
							c-7.258,1.281-14.522,2.563-21.78,3.842c-6.092,1.074-12.176,2.143-18.261,3.215c-9.29,1.643-18.572,3.277-27.858,4.916
							c-14.977,2.641-29.958,5.282-44.942,7.924c0.001,0.003,0.001,0.003,0.003,0.005c0.001,0.005,0,0.009-0.006,0.009
							c-0.008,0.002-0.008,0.002-0.016-0.004l-0.001-0.005c-0.002-0.006-0.001-0.011,0.002-0.015
							c0.001-0.002,0.003-0.002,0.01-0.002c0.005-0.006,0.008-0.004,0.011,0.002C452.059,444.063,452.059,444.064,452.06,444.068"/>
					</defs>
					<clipPath id="SVGID_16_">
						<use xlink:href="#SVGID_15_"  overflow="visible"/>
					</clipPath>
					<g clip-path="url(#SVGID_16_)">
						<g>
							<defs>
								<rect id="SVGID_17_" x="24.297" y="18.05" width="851.549" height="849.796"/>
							</defs>
							<clipPath id="SVGID_18_">
								<use xlink:href="#SVGID_17_"  overflow="visible"/>
							</clipPath>
							<g transform="matrix(1 0 0 1 -3.551195e-007 -7.172348e-007)" clip-path="url(#SVGID_18_)">
								
									<image overflow="visible" width="1775" height="1771" xlink:href="D23A8B57.jpg"  transform="matrix(0.48 0 0 0.48 24.2969 18.0498)">
								</image>
							</g>
						</g>
					</g>
				</g>
			</g>
		</g>
		<g>
			<g>
				<defs>
					<rect id="SVGID_19_" x="115.235" y="107.246" width="673.613" height="673.64"/>
				</defs>
				<clipPath id="SVGID_20_">
					<use xlink:href="#SVGID_19_"  overflow="visible"/>
				</clipPath>
				<g clip-path="url(#SVGID_20_)">
					<defs>
						<path id="SVGID_21_" d="M452.056,444.067c11.357-4.132,22.719-8.269,34.081-12.402c7.041-2.569,14.081-5.128,21.125-7.69
							c4.616-1.683,9.229-3.359,13.845-5.041c5.507-2.004,11.012-4.006,16.521-6.014c7.354-2.676,14.707-5.354,22.057-8.028
							c5.783-2.104,11.569-4.208,17.349-6.315c5.146-1.871,10.283-3.74,15.424-5.612c8.996-3.271,17.995-6.55,26.978-9.819
							c6.115-2.223,12.226-4.449,18.339-6.671c4.494-1.64,8.997-3.273,13.497-4.917c4.171-1.521,8.348-3.036,12.532-4.561
							c6.101-2.218,12.203-4.441,18.313-6.664c5.457-1.99,10.918-3.977,16.383-5.965c2.65-0.969,5.309-1.93,7.956-2.896
							c1.847-0.67,3.692-1.345,5.543-2.017c3.856-1.401,7.706-2.806,11.56-4.209c4.66-1.693,9.322-3.39,13.979-5.085
							c2.73-0.996,5.465-1.986,8.193-2.982c1.768-0.645,3.541-1.291,5.306-1.932c2.415-0.877,4.827-1.756,7.233-2.636
							c3.396-1.233,6.791-2.466,10.187-3.702c-1.279-3.525-2.623-7.025-4.013-10.477c-1.828-4.568-3.756-9.059-5.76-13.507
							c-2.016-4.444-4.104-8.829-6.3-13.143c-2.177-4.325-4.448-8.573-6.784-12.77c-2.349-4.185-4.789-8.304-7.296-12.356
							c-2.506-4.064-5.093-8.046-7.763-11.97c-2.648-3.93-5.398-7.778-8.202-11.563c-2.817-3.779-5.706-7.503-8.655-11.144
							c-2.949-3.647-5.974-7.235-9.082-10.735c-3.087-3.508-6.248-6.939-9.472-10.291c-3.231-3.365-6.517-6.652-9.871-9.875
							c-3.349-3.207-6.767-6.34-10.239-9.403c-3.478-3.058-7.007-6.044-10.599-8.956c-3.591-2.914-7.227-5.757-10.931-8.51
							c-3.701-2.751-7.45-5.427-11.25-8.025c-3.808-2.602-7.663-5.123-11.564-7.557c-3.902-2.441-7.853-4.799-11.838-7.072
							c-3.999-2.275-8.042-4.467-12.126-6.574c-4.073-2.115-8.202-4.135-12.363-6.076c-4.368-2.043-8.788-3.98-13.243-5.835
							c-4.452-1.849-8.954-3.608-13.477-5.272c-4.539-1.656-9.104-3.219-13.717-4.678c-4.601-1.467-9.24-2.828-13.904-4.104
							c-4.67-1.266-9.374-2.443-14.096-3.508c-4.731-1.063-9.477-2.021-14.246-2.891c-4.787-0.86-9.592-1.627-14.409-2.287
							c-4.825-0.654-9.667-1.208-14.522-1.661c-4.863-0.444-9.747-0.78-14.637-1.013c-4.895-0.24-9.794-0.369-14.715-0.389
							c-4.911-0.023-9.845,0.065-14.783,0.266c-4.941,0.197-9.879,0.507-14.821,0.922c-4.957,0.422-9.909,0.957-14.869,1.6
							c-4.949,0.645-9.912,1.404-14.863,2.271c-4.96,0.88-9.905,1.865-14.855,2.971c-4.95,1.1-9.893,2.314-14.829,3.652
							c-4.929,1.338-9.845,2.789-14.759,4.357c-4.913,1.576-9.834,3.275-14.704,5.084c-4.829,1.788-9.595,3.684-14.292,5.673
							c-4.696,1.985-9.327,4.065-13.888,6.243c-4.566,2.175-9.059,4.445-13.485,6.805c-4.428,2.359-8.779,4.803-13.069,7.344
							c-4.274,2.533-8.49,5.151-12.633,7.859c-4.139,2.709-8.203,5.495-12.199,8.363c-3.99,2.87-7.907,5.83-11.746,8.852
							c-3.85,3.031-7.618,6.135-11.312,9.318c-3.684,3.176-7.295,6.422-10.833,9.744c-3.537,3.324-6.989,6.717-10.37,10.182
							c-3.372,3.463-6.668,6.99-9.881,10.589c-3.214,3.594-6.349,7.255-9.396,10.976c-3.051,3.72-6.015,7.505-8.897,11.342
							c-2.882,3.841-5.682,7.736-8.387,11.689c-2.713,3.95-5.34,7.963-7.876,12.02c-2.541,4.063-4.994,8.168-7.355,12.326
							c-2.359,4.164-4.631,8.376-6.818,12.631c-2.181,4.254-4.273,8.555-6.27,12.896c-1.997,4.338-3.91,8.732-5.723,13.156
							s-3.534,8.889-5.166,13.391c-1.626,4.498-3.152,9.031-4.589,13.604c-1.436,4.568-2.777,9.172-4.014,13.803
							c-1.241,4.627-2.384,9.295-3.427,13.982c-1.043,4.683-1.992,9.4-2.834,14.139c-0.841,4.735-1.59,9.5-2.235,14.279
							c-0.644,4.783-1.179,9.591-1.609,14.408c-0.437,4.82-0.769,9.665-0.997,14.508c-0.227,4.848-0.346,9.711-0.363,14.589
							c-0.016,4.88,0.081,9.766,0.282,14.658c0.201,4.895,0.505,9.789,0.921,14.694c0.421,4.907,0.947,9.811,1.582,14.725
							c0.64,4.914,1.392,9.825,2.254,14.741c0.868,4.911,1.842,9.812,2.926,14.72c1.094,4.906,2.295,9.799,3.613,14.693
							c1.316,4.889,2.751,9.774,4.302,14.642c1.55,4.876,3.222,9.749,5.006,14.583c1.718,4.67,3.536,9.284,5.44,13.832
							c1.906,4.555,3.903,9.043,5.986,13.468c2.079,4.419,4.26,8.788,6.512,13.087c2.254,4.295,4.593,8.529,7.012,12.689
							c2.423,4.168,4.929,8.262,7.505,12.293c2.58,4.029,5.24,7.994,7.978,11.885c2.736,3.896,5.547,7.729,8.428,11.483
							c2.885,3.751,5.842,7.437,8.87,11.054c3.028,3.607,6.121,7.155,9.284,10.621c3.165,3.473,6.396,6.864,9.695,10.184
							c3.296,3.324,6.651,6.566,10.079,9.748c3.414,3.164,6.904,6.26,10.44,9.283c3.543,3.018,7.147,5.951,10.8,8.812
							c3.66,2.864,7.37,5.658,11.138,8.361c3.763,2.705,7.581,5.326,11.448,7.874c3.871,2.547,7.783,5.008,11.748,7.393
							c3.968,2.385,7.983,4.688,12.04,6.897c4.057,2.218,8.155,4.349,12.299,6.394c4.143,2.051,8.325,4.012,12.549,5.881
							c4.286,1.906,8.61,3.729,12.968,5.449c4.359,1.723,8.752,3.361,13.178,4.898c4.422,1.542,8.89,2.988,13.385,4.346
							c4.487,1.357,9.019,2.623,13.571,3.789c4.549,1.17,9.126,2.252,13.732,3.236c4.608,0.979,9.239,1.864,13.893,2.654
							c4.652,0.789,9.316,1.475,14.016,2.066c4.689,0.596,9.401,1.086,14.128,1.486c4.727,0.391,9.473,0.688,14.225,0.881
							c4.757,0.193,9.527,0.285,14.304,0.279c4.776-0.006,9.566-0.126,14.368-0.344c4.796-0.215,9.599-0.539,14.405-0.963
							c4.811-0.428,9.617-0.957,14.428-1.596c4.81-0.636,9.625-1.378,14.434-2.234c4.813-0.849,9.628-1.813,14.434-2.885
							c4.802-1.072,9.602-2.248,14.396-3.535c4.794-1.288,9.576-2.697,14.353-4.211c4.772-1.519,9.541-3.145,14.276-4.879
							c4.851-1.773,9.63-3.648,14.34-5.613c4.7-1.971,9.351-4.037,13.919-6.192c4.575-2.162,9.078-4.419,13.519-6.765
							c4.438-2.344,8.808-4.771,13.107-7.292c4.29-2.521,8.522-5.128,12.662-7.815c4.169-2.695,8.243-5.47,12.243-8.313
							c4.009-2.865,7.951-5.797,11.793-8.807c3.873-3.016,7.65-6.106,11.352-9.269c3.699-3.173,7.329-6.407,10.882-9.722
							c3.553-3.313,7.019-6.694,10.403-10.136c3.397-3.452,6.715-6.971,9.942-10.55c3.223-3.586,6.371-7.235,9.438-10.943
							c3.058-3.713,6.041-7.478,8.935-11.307c2.906-3.838,5.715-7.722,8.443-11.662c2.721-3.936,5.373-7.941,7.912-11.988
							c2.557-4.052,5.021-8.154,7.398-12.311c2.39-4.152,4.671-8.353,6.871-12.599c2.188-4.243,4.31-8.538,6.317-12.874
							c1.947-4.162,3.788-8.357,5.554-12.602c1.772-4.236,3.443-8.508,5.039-12.816c1.603-4.313,3.094-8.652,4.52-13.027
							c1.413-4.373,2.738-8.768,3.984-13.201c1.23-4.427,2.383-8.896,3.433-13.383c1.057-4.486,2.032-8.992,2.897-13.527
							c0.883-4.531,1.655-9.084,2.354-13.665c0.685-4.568,1.272-9.169,1.774-13.784c0.5-4.604,0.904-9.24,1.213-13.879
							c0.311-4.645,0.518-9.303,0.629-13.979c0.117-4.671,0.137-9.354,0.059-14.041c-0.092-4.684-0.266-9.387-0.547-14.088
							c-0.283-4.7-0.669-9.408-1.146-14.123c-0.487-4.704-1.065-9.417-1.756-14.138c-0.684-4.712-1.48-9.425-2.373-14.142
							c-0.894-4.719-1.895-9.426-3-14.133c-1.104-4.699-2.307-9.395-3.625-14.082c-1.322-4.692-2.74-9.381-4.279-14.049
							c-1.145-3.51-2.348-7.018-3.618-10.512c-3.396,1.236-6.79,2.469-10.187,3.702c-2.406,0.88-4.818,1.759-7.233,2.636
							c-1.765,0.641-3.538,1.287-5.306,1.932c-2.729,0.996-5.463,1.986-8.193,2.982c-4.656,1.695-9.318,3.391-13.981,5.086
							c-3.853,1.406-7.7,2.805-11.559,4.209c-1.847,0.672-3.694,1.346-5.543,2.018c-2.651,0.965-5.304,1.93-7.956,2.895
							c-5.463,1.988-10.924,3.977-16.383,5.967c-6.111,2.221-12.211,4.444-18.324,6.665c-4.173,1.521-8.348,3.04-12.525,4.562
							c-4.496,1.637-8.999,3.273-13.493,4.913c-6.117,2.222-12.222,4.45-18.339,6.674c-8.994,3.271-17.989,6.545-26.983,9.819
							c-5.137,1.869-10.28,3.741-15.424,5.613c-5.783,2.107-11.567,4.209-17.353,6.316c-7.35,2.676-14.702,5.354-22.054,8.028
							c-5.508,2.003-11.012,4.009-16.517,6.01c-4.618,1.681-9.231,3.357-13.849,5.042c-7.042,2.561-14.082,5.125-21.124,7.688
							c-11.355,4.134-22.717,8.272-34.078,12.403l0.004,0.008c0.002,0.002-0.004,0.002-0.004,0.002
							c-0.005,0.004-0.005,0.004-0.014,0l-0.002-0.005l-0.001-0.006c0.002-0.007,0.002-0.007,0.009-0.011h0.003
							C452.054,444.053,452.056,444.067,452.056,444.067"/>
					</defs>
					<clipPath id="SVGID_22_">
						<use xlink:href="#SVGID_21_"  overflow="visible"/>
					</clipPath>
					<g clip-path="url(#SVGID_22_)">
						<g>
							<defs>
								<rect id="SVGID_23_" x="115.22" y="107.244" width="673.659" height="673.643"/>
							</defs>
							<clipPath id="SVGID_24_">
								<use xlink:href="#SVGID_23_"  overflow="visible"/>
							</clipPath>
							<g transform="matrix(1 0 0 1 -2.137014e-006 3.062720e-006)" clip-path="url(#SVGID_24_)">
								
									<image overflow="visible" width="1404" height="1404" xlink:href="D23A8B52.jpg"  transform="matrix(0.48 0 0 0.48 115.2197 107.2441)">
								</image>
							</g>
						</g>
					</g>
				</g>
			</g>
		</g>
		<g opacity="0.29">
			<g>
				<defs>
					<rect id="SVGID_25_" x="385.665" y="428.545" width="148.641" height="163.7"/>
				</defs>
				<clipPath id="SVGID_26_">
					<use xlink:href="#SVGID_25_"  overflow="visible"/>
				</clipPath>
				<g clip-path="url(#SVGID_26_)">
					<defs>
						<path id="SVGID_27_" d="M469.899,512.408c-6.031-27.308-10.846-46.123-13.677-59.736c-1.665-7.988-2.165-6.316-3.827-14.305
							c-10.06,2.85-23.525,3.846-31.136,4.723c-10.129,1.162-14.754,1.881-17.484,2.563c-2.736,0.689-3.754,1.279-4.698,1.828
							c-0.946,0.555-1.699,1.06-2.427,1.496c-0.726,0.426-1.378,0.781-1.885,1.025c-0.503,0.243-0.854,0.373-1.054,0.402
							c-0.203,0.029-0.246-0.059-0.179-0.245c0.067-0.179,0.245-0.468,0.451-0.755c0.201-0.279,0.428-0.566,0.586-0.751
							c0.159-0.175,0.249-0.261,0.196-0.192c-0.048,0.074-0.221,0.266-0.596,0.644c-0.367,0.38-0.937,0.948-1.803,1.845
							c-0.867,0.904-1.626,1.856-2.296,2.854c-0.67,1.005-1.247,2.053-1.745,3.129c-0.494,1.084-0.913,2.195-1.255,3.347
							c-0.349,1.139-0.619,2.309-0.833,3.506c-0.209,1.193-0.36,2.406-0.453,3.622c-0.092,1.239-0.129,2.479-0.117,3.733
							c0.013,1.254,0.075,2.516,0.179,3.785c0.113,1.331,0.27,2.674,0.471,4.01c0.199,1.338,0.44,2.682,0.718,4.018
							c0.281,1.346,0.59,2.676,0.936,4.001c0.342,1.329,0.72,2.657,1.124,3.964c0.401,1.313,0.827,2.617,1.276,3.902
							c0.45,1.294,0.92,2.568,1.41,3.827c0.489,1.256,0.994,2.506,1.514,3.727c0.522,1.227,1.059,2.438,1.605,3.628
							c0.545,1.185,1.106,2.354,1.672,3.504c0.565,1.141,1.138,2.268,1.72,3.367c0.575,1.1,1.161,2.18,1.749,3.236
							c0.589,1.053,1.179,2.076,1.768,3.078c0.592,1.004,1.183,1.977,1.775,2.928c0.589,0.941,1.177,1.865,1.758,2.756
							c0.582,0.896,1.163,1.758,1.733,2.596c0.575,0.844,1.141,1.646,1.696,2.434c0.56,0.779,1.107,1.528,1.641,2.25
							c0.539,0.725,1.169,1.549,1.574,2.081c0.502,0.659,1.042,1.324,1.609,2.006c0.57,0.681,1.171,1.374,1.803,2.079
							c0.627,0.714,1.291,1.425,1.983,2.159c0.689,0.729,1.412,1.476,2.165,2.229c0.749,0.75,1.529,1.521,2.339,2.305
							c0.807,0.777,1.647,1.562,2.507,2.367c0.861,0.797,1.755,1.612,2.662,2.43c0.916,0.826,1.855,1.659,2.814,2.504
							c0.956,0.838,1.939,1.691,2.936,2.551c1,0.857,2.016,1.722,3.055,2.598c1.029,0.869,2.077,1.75,3.135,2.63
							c1.058,0.877,2.129,1.762,3.207,2.649c1.076,0.883,2.155,1.77,3.238,2.652c1.088,0.889,2.174,1.773,3.253,2.646
							c1.085,0.877,2.166,1.76,3.237,2.617c1.075,0.868,2.14,1.73,3.196,2.57c1.053,0.85,2.095,1.682,3.125,2.5
							c1.029,0.824,2.045,1.63,3.03,2.414c0.998,0.784,1.975,1.556,2.934,2.303c0.96,0.748,1.894,1.472,2.806,2.183
							c0.916,0.698,1.803,1.378,2.678,2.038c0.864,0.652,1.688,1.215,2.487,1.703c0.786,0.488,1.551,0.91,2.285,1.281
							c0.733,0.367,1.441,0.684,2.123,0.978c0.682,0.283,1.34,0.536,1.979,0.77c0.64,0.227,1.257,0.435,1.856,0.625
							c0.592,0.187,1.177,0.36,1.737,0.522c0.562,0.163,1.107,0.311,1.637,0.448c0.531,0.139,1.049,0.269,1.55,0.384
							c0.501,0.119,0.988,0.223,1.47,0.318c0.478,0.1,0.944,0.181,1.403,0.256c0.46,0.074,0.906,0.137,1.346,0.179
							c0.439,0.046,0.873,0.079,1.297,0.101c0.425,0.018,0.846,0.02,1.251,0.002c0.418-0.019,0.824-0.048,1.227-0.099
							c0.401-0.046,0.755-0.085,1.196-0.205c0.335-0.082,0.79-0.166,1.224-0.249c0.439-0.078,0.906-0.16,1.395-0.242
							c0.492-0.084,1.017-0.163,1.566-0.238c0.548-0.08,1.122-0.153,1.726-0.229c0.619-0.07,1.243-0.145,1.9-0.217
							c0.659-0.064,1.346-0.144,2.064-0.213c0.712-0.072,1.449-0.146,2.208-0.227c0.757-0.086,1.535-0.172,2.33-0.271
							c0.797-0.101,1.614-0.211,2.439-0.35c0.821-0.139,1.646-0.303,2.47-0.506c0.82-0.205,1.621-0.457,2.397-0.768
							c0.763-0.316,1.501-0.693,2.147-1.172c0.648-0.477,1.208-1.047,1.632-1.756c0.417-0.704,0.826-1.463,1.218-2.243
							c0.384-0.784,0.751-1.617,1.101-2.483c0.348-0.859,0.673-1.766,0.99-2.709c0.306-0.938,0.591-1.919,0.86-2.932
							c0.262-1.009,0.505-2.049,0.727-3.123c0.223-1.073,0.426-2.179,0.605-3.311c0.18-1.152,0.349-2.313,0.49-3.509
							c0.134-1.206,0.258-2.413,0.363-3.649s0.193-2.482,0.266-3.756c0.075-1.258,0.135-2.539,0.182-3.822
							c0.051-1.283,0.086-2.58,0.116-3.869c0.031-1.299,0.057-2.59,0.082-3.884c0.019-1.288,0.033-2.583,0.054-3.867
							c0.015-1.274,0.04-2.548,0.053-3.821c0.029-1.256,0.052-2.51,0.082-3.753c0.035-1.237,0.079-2.464,0.119-3.668
							c0.048-1.199,0.107-2.391,0.17-3.552c0.061-1.169,0.134-2.32,0.222-3.431c0.084-1.127,0.182-2.228,0.285-3.298
							c0.114-1.068,0.221-2.121,0.351-3.143c0.126-1.021,0.262-2.02,0.413-2.982c0.151-0.969,0.296-1.908,0.465-2.814
							c0.164-0.916,0.334-1.797,0.514-2.645c0.18-0.85,0.31-1.537,0.558-2.464c0.046-0.161,0.115-0.356,0.172-0.618
							c0.052-0.26,0.113-0.572,0.166-0.936c0.056-0.363,0.115-0.78,0.175-1.242c0.063-0.469,0.123-0.98,0.194-1.545
							c0.067-0.564,0.134-1.181,0.205-1.84c0.074-0.67,0.151-1.375,0.228-2.139c0.084-0.763,0.173-1.57,0.259-2.428
							c0.09-0.862,0.19-1.762,0.287-2.714c0.098-0.95,0.201-1.944,0.304-2.983c0.107-1.041,0.209-2.108,0.323-3.229
							c0.105-1.119,0.218-2.277,0.329-3.469c0.107-1.193,0.221-2.424,0.325-3.684c0.111-1.259,0.218-2.555,0.315-3.875
							c0.101-1.332,0.192-2.679,0.281-4.063c0.084-1.369,0.163-2.779,0.228-4.209c0.065-1.426,0.118-2.883,0.151-4.354
							c0.032-1.468,0.047-2.954,0.034-4.459c-0.015-1.486-0.048-3.002-0.13-4.51c-0.071-1.451-0.176-2.896-0.329-4.328
							c-0.153-1.434-0.355-2.851-0.615-4.236c-0.262-1.393-0.587-2.752-0.985-4.046c-0.399-1.308-0.879-2.554-1.454-3.72
							c-0.58-1.166-1.256-2.248-2.055-3.221c-0.797-0.967-1.713-1.814-2.785-2.492c-1.063-0.684-2.273-1.322-3.632-1.883
							c-1.365-0.552-2.89-1.021-4.571-1.359c-1.668-0.34-3.505-0.558-5.482-0.629c-1.992-0.072-4.108,0-6.356,0.196
							c-2.227,0.194-4.582,0.517-6.988,0.919c-2.412,0.407-4.89,0.9-7.356,1.422c-2.481,0.519-4.952,1.076-7.373,1.613
							c-2.425,0.539-4.799,1.059-7.065,1.537c-2.276,0.479-4.457,0.914-6.522,1.289c-2.064,0.378-4.02,0.702-5.847,0.978
							c-1.829,0.283-3.531,0.515-5.115,0.732c-1.587,0.22-3.059,0.409-4.41,0.627c-1.008,0.153-1.956,0.313-2.837,0.501
							c1.662,7.992,2.162,6.316,3.827,14.307c2.833,13.613,10.846,46.123,13.677,59.736l0.002-0.002v0.002
							c0,0.004,0,0.004,0.002,0.004l-0.002,0.002c-0.002,0-0.002,0-0.004-0.002v-0.004L469.899,512.408z"/>
					</defs>
					<clipPath id="SVGID_28_">
						<use xlink:href="#SVGID_27_"  overflow="visible"/>
					</clipPath>
					<g clip-path="url(#SVGID_28_)">
						<g>
							<defs>
								<rect id="SVGID_29_" x="385.655" y="428.48" width="148.66" height="163.766"/>
							</defs>
							<clipPath id="SVGID_30_">
								<use xlink:href="#SVGID_29_"  overflow="visible"/>
							</clipPath>
							<g transform="matrix(1 0 0 1 -5.558919e-006 2.504967e-006)" clip-path="url(#SVGID_30_)">
								
									<image overflow="visible" width="310" height="342" xlink:href="D23A8B53.jpg"  transform="matrix(0.48 0 0 0.48 385.6548 428.4805)">
								</image>
							</g>
						</g>
					</g>
				</g>
			</g>
		</g>
	</g>
</g>
</svg>
