<?xml version="1.0" encoding="utf-8"?>
<!-- Generator: Adobe Illustrator 15.0.0, SVG Export Plug-In . SVG Version: 6.00 Build 0)  -->
<!DOCTYPE svg PUBLIC "-//W3C//DTD SVG 1.1//EN" "http://www.w3.org/Graphics/SVG/1.1/DTD/svg11.dtd">
<svg version="1.1" id="Layer_1" xmlns="http://www.w3.org/2000/svg" xmlns:xlink="http://www.w3.org/1999/xlink" x="0px" y="0px"
	 width="663.734px" height="132.421px" viewBox="0 0 663.734 132.421" enable-background="new 0 0 663.734 132.421"
	 xml:space="preserve">
<g>
	<g>
		<defs>
			<path id="SVGID_1_" d="M189.22,66.278l15.58,0v-8.436h-15.58V66.278z M124.64,40.655v8.748h13.115v34.37h9.491v-34.37h13.117
				v-8.748H124.64z M175.051,40.655v43.117h32.831v-8.44h-23.407v-2.98v-6.074v-8.435v-3.254v-5.492h23.097v-8.441H175.051z
				 M233.22,49.218h9.426c4.619,0,7.451,2.095,7.451,6.157v0.127c0,3.629-2.648,6.098-7.269,6.098h-9.608V49.218z M223.734,40.655
				v43.117h9.484V69.977h7.453l9.238,13.796h11.091l-10.533-15.397c5.482-2.036,9.239-6.409,9.239-13.364v-0.127
				c0-4.063-1.293-7.454-3.697-9.855c-2.835-2.834-7.081-4.375-12.564-4.375L223.734,40.655L223.734,40.655z M31.624,40.537
				l-9.67,29.315l-8.932-29.198H2.855l14.727,43.424h8.25l9.734-28.206l9.729,28.204h8.256l14.72-43.423h-9.916l-8.932,29.197
				l-9.668-29.314H31.624z M91.964,40.35L73.489,83.773h9.668l13.062-32.027l13.054,32.027h9.916L100.711,40.35H91.964z
				 M274.456,53.039v0.121c0,8.561,5.607,10.962,14.289,13.181c7.208,1.852,8.688,3.079,8.688,5.482v0.125
				c0,2.529-2.344,4.068-6.225,4.068c-4.925,0-8.993-2.038-12.869-5.235l-5.609,6.709c5.177,4.621,11.769,6.9,18.298,6.9
				c9.298,0,15.828-4.803,15.828-13.365v-0.126c0-7.513-4.931-10.652-13.672-12.935c-7.458-1.912-9.305-2.834-9.305-5.668v-0.118
				c0-2.097,1.913-3.757,5.543-3.757c3.638,0,7.393,1.6,11.215,4.249l4.925-7.148c-4.374-3.51-9.731-5.481-16.015-5.481
				C280.741,40.04,274.456,45.215,274.456,53.039"/>
		</defs>
		<clipPath id="SVGID_2_">
			<use xlink:href="#SVGID_1_"  overflow="visible"/>
		</clipPath>
		
			<linearGradient id="SVGID_3_" gradientUnits="userSpaceOnUse" x1="-1119.6367" y1="-3918.5142" x2="-1118.8898" y2="-3918.5142" gradientTransform="matrix(-1.3179 383.5209 -383.5209 -1.3179 -1504152.75 424234.2188)">
			<stop  offset="0" style="stop-color:#38C2F0"/>
			<stop  offset="0.2658" style="stop-color:#38C2F0"/>
			<stop  offset="0.4848" style="stop-color:#104777"/>
			<stop  offset="0.4868" style="stop-color:#38C2F0"/>
			<stop  offset="1" style="stop-color:#045473"/>
		</linearGradient>
		<polygon clip-path="url(#SVGID_2_)" fill="url(#SVGID_3_)" points="307.008,40.04 306.853,85.435 2.703,84.389 2.859,38.994 		"/>
	</g>
</g>
<path fill="#6E6F71" d="M107.252,116.458c0,0,13.815-8.738,31.45-7.782c17.634,0.956,20.05,4.998,36.746,6.518
	c17.409,1.587,27.011-4.655,27.011-4.655s-9.685,10.06-27.322,10.043c-16.075-0.013-20.701-4.305-38.073-6.284
	C119.431,112.286,107.252,116.458,107.252,116.458 M138.549,29.279c6.697,0,11.015-3.844,11.015-11.492V3.261h-4.501v14.747
	c0,4.72-2.452,7.137-6.441,7.137c-4.025,0-6.478-2.563-6.478-7.319V3.261h-4.5v14.747C127.645,25.436,131.889,29.279,138.549,29.279
	 M119.441,28.875h-4.757L106.01,8.457l-8.673,20.419h-4.61l11.271-25.8h4.172L119.441,28.875z M216.985,28.875h-4.757l-8.673-20.419
	l-8.673,20.419h-4.61l11.27-25.799h4.172L216.985,28.875z M182.617,28.875h-5.307l-6.294-8.928h-1.683v-3.989h2.633
	c3.222,0,5.271-1.683,5.271-4.282v-0.072c0-2.746-1.976-4.247-5.306-4.247h-6.552v7.111v1.49v3.989v2.718v6.211h-4.501V3.261h11.418
	c3.22,0,5.746,0.951,7.392,2.561c1.354,1.391,2.124,3.294,2.124,5.527v0.073c0,4.208-2.526,6.732-6.112,7.758L182.617,28.875z"/>
<g>
	<g>
		<path fill="#727474" d="M583.632,78.98c-0.498-0.805-1.197-1.424-2.109-1.867c-0.91-0.443-1.994-0.666-3.25-0.675h-6.342v16.081
			h2.826v-5.168h3.193c0.891,0,1.723-0.119,2.496-0.354c0.774-0.234,1.459-0.578,2.049-1.041c0.586-0.459,1.049-1.033,1.383-1.719
			c0.33-0.683,0.5-1.476,0.506-2.379v-0.045C584.376,80.727,584.126,79.785,583.632,78.98 M581.511,81.93
			c-0.004,0.563-0.145,1.063-0.424,1.488c-0.279,0.425-0.678,0.765-1.195,1.011c-0.518,0.24-1.133,0.367-1.85,0.371h-3.285v-5.789
			h3.285c0.709,0,1.32,0.107,1.838,0.324c0.521,0.219,0.92,0.537,1.203,0.965c0.283,0.426,0.424,0.955,0.428,1.582V81.93z"/>
		<path fill="#727474" d="M556.544,92.773c1.053,0,2.006-0.148,2.857-0.451c0.846-0.303,1.571-0.756,2.178-1.355
			c0.604-0.6,1.068-1.35,1.389-2.256c0.326-0.896,0.486-1.949,0.49-3.148V76.44h-2.824v9.258c-0.004,0.986-0.17,1.813-0.49,2.477
			c-0.326,0.666-0.789,1.164-1.391,1.502c-0.604,0.332-1.324,0.502-2.162,0.502c-0.848,0-1.57-0.176-2.18-0.527
			c-0.605-0.35-1.068-0.865-1.396-1.545c-0.322-0.686-0.486-1.525-0.49-2.521V76.44h-2.826v9.258
			c0.004,1.168,0.164,2.188,0.48,3.074c0.318,0.881,0.777,1.619,1.375,2.213c0.6,0.594,1.314,1.037,2.156,1.338
			C554.552,92.623,555.495,92.773,556.544,92.773"/>
		<path fill="#727474" d="M541.54,81.832c-0.26-0.822-0.641-1.576-1.131-2.266c-0.494-0.689-1.082-1.285-1.771-1.795
			c-0.689-0.512-1.459-0.904-2.314-1.186c-0.854-0.277-1.778-0.422-2.771-0.424c-0.989,0.002-1.915,0.145-2.771,0.428
			c-0.861,0.283-1.635,0.684-2.327,1.195c-0.693,0.512-1.29,1.119-1.784,1.811c-0.498,0.693-0.877,1.451-1.145,2.277
			c-0.266,0.828-0.399,1.692-0.403,2.605v0.045c0.004,0.906,0.135,1.775,0.399,2.596c0.264,0.824,0.639,1.582,1.129,2.271
			c0.494,0.689,1.084,1.285,1.771,1.797c0.689,0.51,1.462,0.902,2.316,1.184c0.854,0.279,1.776,0.422,2.769,0.426
			c0.993-0.004,1.915-0.146,2.772-0.43c0.858-0.283,1.635-0.682,2.332-1.195c0.69-0.512,1.287-1.117,1.785-1.811
			c0.491-0.693,0.877-1.455,1.141-2.277c0.264-0.828,0.396-1.697,0.402-2.604v-0.045C541.935,83.523,541.806,82.656,541.54,81.832
			 M538.976,84.523c-0.004,0.785-0.135,1.521-0.397,2.205s-0.634,1.283-1.113,1.807c-0.481,0.52-1.053,0.926-1.717,1.217
			c-0.658,0.295-1.394,0.445-2.194,0.449c-0.801-0.004-1.533-0.158-2.201-0.457c-0.666-0.293-1.24-0.707-1.729-1.232
			c-0.486-0.521-0.866-1.133-1.13-1.816c-0.269-0.689-0.402-1.43-0.406-2.213v-0.047c0.004-0.786,0.135-1.521,0.398-2.206
			c0.261-0.683,0.636-1.285,1.113-1.806c0.481-0.52,1.055-0.926,1.717-1.217c0.66-0.295,1.394-0.445,2.191-0.447
			c0.807,0.002,1.535,0.158,2.203,0.455c0.666,0.295,1.244,0.709,1.73,1.234c0.483,0.521,0.864,1.129,1.129,1.816
			c0.268,0.689,0.401,1.428,0.405,2.212L538.976,84.523L538.976,84.523z"/>
		<path fill="#727474" d="M513.94,86.431c0.758-0.215,1.418-0.535,1.992-0.961c0.574-0.428,1.023-0.965,1.35-1.615
			c0.324-0.65,0.49-1.412,0.494-2.292v-0.047c-0.004-0.705-0.119-1.348-0.35-1.934c-0.229-0.586-0.556-1.1-0.984-1.535
			c-0.521-0.51-1.168-0.903-1.947-1.184c-0.781-0.279-1.678-0.422-2.692-0.426h-7.167v16.082h2.825v-5.604h3.537l3.952,5.604h3.332
			L513.94,86.431z M511.597,84.41h-4.137v-5.398h4.111c0.701,0,1.299,0.104,1.793,0.306c0.498,0.207,0.877,0.507,1.142,0.901
			c0.263,0.396,0.397,0.883,0.397,1.457v0.047c-0.004,0.547-0.138,1.021-0.41,1.422c-0.269,0.4-0.646,0.71-1.141,0.935
			C512.858,84.294,512.272,84.406,511.597,84.41"/>
		<path fill="#727474" d="M489.661,92.794c0.949-0.008,1.834-0.123,2.652-0.348c0.819-0.229,1.565-0.529,2.243-0.904
			c0.679-0.379,1.283-0.791,1.812-1.252v-6.753h-6.846v2.458h4.113v3.008c-0.498,0.373-1.081,0.666-1.743,0.887
			c-0.663,0.217-1.378,0.328-2.14,0.332c-0.823-0.004-1.57-0.148-2.241-0.434c-0.67-0.283-1.244-0.682-1.726-1.197
			c-0.479-0.518-0.85-1.123-1.11-1.818c-0.257-0.695-0.387-1.463-0.392-2.293v-0.047c0.005-0.771,0.14-1.505,0.398-2.187
			c0.26-0.681,0.629-1.281,1.1-1.808c0.471-0.521,1.021-0.931,1.654-1.229c0.631-0.295,1.32-0.447,2.063-0.451
			c0.678,0,1.273,0.072,1.8,0.211c0.522,0.142,1.003,0.338,1.438,0.598c0.433,0.258,0.857,0.559,1.264,0.915l1.792-2.136
			c-0.543-0.469-1.118-0.866-1.715-1.189c-0.597-0.322-1.261-0.572-1.983-0.74c-0.729-0.168-1.554-0.252-2.48-0.252
			c-0.974,0.002-1.879,0.148-2.724,0.434c-0.846,0.281-1.606,0.682-2.288,1.197c-0.686,0.514-1.271,1.117-1.759,1.812
			c-0.489,0.696-0.864,1.456-1.125,2.278c-0.264,0.826-0.396,1.691-0.397,2.595v0.047c0.004,0.941,0.131,1.826,0.383,2.66
			c0.257,0.832,0.623,1.59,1.103,2.273c0.482,0.688,1.065,1.275,1.746,1.773s1.451,0.881,2.31,1.15
			C487.72,92.654,488.653,92.791,489.661,92.794"/>
		<polygon fill="#EA7F23" points="584.11,67.647 579.294,67.867 563.81,32.461 573.183,32.461 581.845,52.262 590.991,32.461 
			600.364,32.461 		"/>
		<g>
			<g>
				<g>
					<defs>
						<path id="SVGID_4_" d="M456.84,32.668l-15.397,34.646l-8.609-12.454c5.214-1.389,7.883-4.953,7.99-10.73
							c0-3.408-1.028-6.139-3.101-8.182c-2.067-2.047-4.735-3.135-8.003-3.279h-20.047v34.979h8.721l0.036-27.334h10.274
							c1.986,0.323,3.004,1.614,3.052,3.853c-0.048,2.01-0.97,3.24-2.776,3.686h-3.709l-3.18,7.135l8.923,12.662h10.28l-0.018,0.037
							h9.643l10.97-24.499l4.761,10.442h-7.466l3.453,7.752h7.481l2.848,6.305h9.283l-15.6-35.016L456.84,32.668L456.84,32.668z
							 M531.245,32.668l-15.563,35.017h9.641l10.973-24.499l4.758,10.441h-7.465l3.454,7.752h7.481l2.849,6.306h9.282
							l-15.602-35.017H531.245z M606.716,32.668l-15.563,35.017h9.641l10.971-24.499l4.76,10.441h-7.467l3.455,7.752h7.48
							l2.848,6.306h9.283l-15.6-35.017H606.716z M548.077,32.635l14.893,35.011l-0.002,0.002h0.002h9.115h0.258l2.318-5.021
							l-4.586-10.521l-2.354,5.145l-10.323-24.615H548.077z M622.581,32.635l3.355,7.533h10.43v27.479h8.758V40.168h10.908v-7.533
							H622.581z M505.772,32.592v0.043h-0.006v20.357l-14.045-20.357v-0.037h-8.73v0.037h-0.036l0.036,0.07v34.941h8.73V47.035
							l14.045,20.336v0.275h8.936l-0.131-0.215V32.635h-0.004v-0.043H505.772z"/>
					</defs>
					<clipPath id="SVGID_5_">
						<use xlink:href="#SVGID_4_"  overflow="visible"/>
					</clipPath>
					
						<radialGradient id="SVGID_6_" cx="-2298.6484" cy="2008.1479" r="1.0008" gradientTransform="matrix(124.7803 0 0 -124.7803 287358.875 250627.4063)" gradientUnits="userSpaceOnUse">
						<stop  offset="0" style="stop-color:#478CCA"/>
						<stop  offset="1" style="stop-color:#1A488D"/>
					</radialGradient>
					<rect x="409.673" y="32.592" clip-path="url(#SVGID_5_)" fill="url(#SVGID_6_)" width="246.359" height="35.093"/>
				</g>
			</g>
		</g>
		<path fill="#6D6E71" d="M443.159,125.076H437.7v-13.043h5.238c2.547,0,4.03,1.428,4.03,3.664c0,1.447-0.952,2.381-1.612,2.691
			c0.789,0.365,1.797,1.189,1.797,2.932C447.153,123.757,445.485,125.076,443.159,125.076 M442.737,114.304h-2.49v3.006h2.49
			c1.082,0,1.686-0.605,1.686-1.502C444.423,114.908,443.819,114.304,442.737,114.304 M442.903,119.599h-2.656v3.205h2.656
			c1.153,0,1.703-0.73,1.703-1.611C444.608,120.314,444.058,119.599,442.903,119.599"/>
		<polygon fill="#6D6E71" points="451.22,125.076 451.22,112.033 459.81,112.033 459.81,114.304 453.765,114.304 453.765,117.363 
			458.913,117.363 458.913,119.634 453.765,119.634 453.765,122.804 459.81,122.804 459.81,125.076 		"/>
		<polygon fill="#6D6E71" points="478.751,125.076 478.751,117.474 476.26,122.419 474.538,122.419 472.028,117.474 
			472.028,125.076 469.481,125.076 469.481,112.033 471.991,112.033 475.399,119.085 478.788,112.033 481.297,112.033 
			481.297,125.076 		"/>
		<path fill="#6D6E71" d="M493.661,123.812c-0.879,0.879-1.979,1.375-3.479,1.375c-1.503,0-2.62-0.496-3.499-1.375
			c-1.301-1.301-1.318-2.768-1.318-5.258s0.019-3.957,1.318-5.258c0.879-0.879,1.996-1.373,3.499-1.373
			c1.502,0,2.601,0.494,3.479,1.373c1.301,1.301,1.338,2.768,1.338,5.258S494.962,122.511,493.661,123.812 M491.812,114.892
			c-0.365-0.422-0.934-0.697-1.63-0.697s-1.265,0.275-1.649,0.697c-0.477,0.549-0.623,1.172-0.623,3.662s0.146,3.098,0.623,3.646
			c0.386,0.422,0.953,0.715,1.649,0.715s1.265-0.293,1.63-0.715c0.478-0.549,0.642-1.154,0.642-3.646
			C492.452,116.064,492.288,115.441,491.812,114.892"/>
		<path fill="#6D6E71" d="M505.989,125.076l-2.545-5.203h-1.834v5.203h-2.545v-13.043h5.11c2.655,0,4.231,1.813,4.231,3.994
			c0,1.832-1.118,2.967-2.383,3.426l2.912,5.623H505.989z M504.011,114.304h-2.398v3.443h2.398c1.117,0,1.852-0.715,1.852-1.721
			C505.86,115.019,505.128,114.304,504.011,114.304"/>
		<polygon fill="#6D6E71" points="512.511,125.076 512.511,112.033 521.103,112.033 521.103,114.304 515.057,114.304 
			515.057,117.363 520.204,117.363 520.204,119.634 515.057,119.634 515.057,122.804 521.103,122.804 521.103,125.076 		"/>
		<rect x="524.784" y="122.365" fill="#6D6E71" width="2.729" height="2.711"/>
		<path fill="#6D6E71" d="M546.106,123.169c-0.936,1.301-2.162,1.906-3.938,1.906h-4.707v-13.043h4.707
			c1.776,0,3.006,0.604,3.938,1.906c0.806,1.113,0.824,2.453,0.824,4.613C546.931,120.714,546.911,122.052,546.106,123.169
			 M543.853,115.111c-0.422-0.531-1.045-0.809-1.904-0.809h-1.94v8.5h1.94c0.859,0,1.482-0.273,1.904-0.807
			c0.478-0.568,0.531-1.393,0.531-3.443S544.329,115.677,543.853,115.111"/>
		<path fill="#6D6E71" d="M558.854,123.812c-0.879,0.879-1.979,1.375-3.479,1.375s-2.619-0.496-3.498-1.375
			c-1.302-1.301-1.318-2.768-1.318-5.258s0.021-3.957,1.318-5.258c0.879-0.879,1.996-1.373,3.498-1.373
			c1.504,0,2.604,0.494,3.479,1.373c1.301,1.301,1.338,2.768,1.338,5.258S560.155,122.511,558.854,123.812 M557.005,114.892
			c-0.367-0.422-0.934-0.697-1.631-0.697s-1.264,0.275-1.648,0.697c-0.477,0.549-0.623,1.172-0.623,3.662s0.146,3.098,0.623,3.646
			c0.385,0.422,0.951,0.715,1.648,0.715s1.264-0.293,1.631-0.715c0.477-0.549,0.641-1.154,0.641-3.646
			C557.646,116.064,557.481,115.441,557.005,114.892"/>
		<polygon fill="#6D6E71" points="579.241,125.076 579.241,117.474 576.751,122.419 575.028,122.419 572.521,117.474 
			572.521,125.076 569.974,125.076 569.974,112.033 572.483,112.033 575.89,119.085 579.278,112.033 581.788,112.033 
			581.788,125.076 		"/>
		<path fill="#6D6E71" d="M594.153,123.812c-0.879,0.879-1.98,1.375-3.482,1.375s-2.617-0.496-3.498-1.375
			c-1.301-1.301-1.318-2.768-1.318-5.258s0.021-3.957,1.318-5.258c0.881-0.879,1.996-1.373,3.498-1.373
			c1.504,0,2.604,0.494,3.482,1.373c1.301,1.301,1.336,2.768,1.336,5.258S595.454,122.511,594.153,123.812 M592.304,114.892
			c-0.367-0.422-0.936-0.697-1.633-0.697c-0.695,0-1.264,0.275-1.646,0.697c-0.477,0.549-0.623,1.172-0.623,3.662
			s0.146,3.098,0.623,3.646c0.385,0.422,0.951,0.715,1.646,0.715c0.697,0,1.266-0.293,1.633-0.715
			c0.475-0.549,0.641-1.154,0.641-3.646C592.944,116.064,592.778,115.441,592.304,114.892"/>
		<path fill="#6D6E71" d="M606.481,125.076l-2.547-5.203h-1.83v5.203h-2.549v-13.043h5.111c2.656,0,4.23,1.813,4.23,3.994
			c0,1.832-1.115,2.967-2.382,3.426l2.912,5.623H606.481z M604.503,114.304h-2.398v3.443h2.398c1.117,0,1.852-0.715,1.852-1.721
			C606.354,115.019,605.62,114.304,604.503,114.304"/>
		<polygon fill="#6D6E71" points="613.001,125.076 613.001,112.033 621.593,112.033 621.593,114.304 615.548,114.304 
			615.548,117.363 620.696,117.363 620.696,119.634 615.548,119.634 615.548,122.804 621.593,122.804 621.593,125.076 		"/>
		<rect x="625.274" y="122.365" fill="#6D6E71" width="2.729" height="2.711"/>
		<rect x="437.702" y="101.275" fill="#6D6E71" width="190.303" height="1.479"/>
	</g>
	<g>
		<path d="M490.039,9.147v1.013h-3.904V9.147H490.039z"/>
		<path d="M495.063,3.395c0.664-0.109,1.532-0.205,2.641-0.205c1.359,0,2.354,0.314,2.986,0.885c0.569,0.506,0.934,1.28,0.934,2.229
			c0,0.965-0.284,1.724-0.822,2.277c-0.742,0.773-1.912,1.168-3.256,1.168c-0.411,0-0.791-0.016-1.105-0.094v4.268h-1.377V3.395z
			 M496.438,8.531c0.301,0.079,0.68,0.109,1.139,0.109c1.66,0,2.672-0.82,2.672-2.26c0-1.422-1.012-2.102-2.514-2.102
			c-0.602,0-1.061,0.047-1.297,0.109V8.531z"/>
		<path d="M503.471,3.41c0.695-0.127,1.707-0.222,2.642-0.222c1.47,0,2.434,0.284,3.082,0.868c0.521,0.477,0.838,1.201,0.838,2.039
			c0,1.393-0.885,2.324-1.992,2.703v0.049c0.807,0.283,1.297,1.043,1.55,2.148c0.349,1.486,0.601,2.514,0.822,2.926h-1.423
			c-0.174-0.316-0.411-1.217-0.696-2.545c-0.315-1.471-0.9-2.023-2.149-2.072h-1.296v4.617h-1.376L503.471,3.41L503.471,3.41z
			 M504.847,8.264h1.406c1.471,0,2.402-0.807,2.402-2.023c0-1.375-0.996-1.977-2.449-1.977c-0.664,0-1.123,0.048-1.359,0.111V8.264z
			"/>
		<path d="M521.08,8.484c0,3.65-2.229,5.611-4.947,5.611c-2.83,0-4.79-2.197-4.79-5.422c0-3.383,2.086-5.598,4.932-5.598
			C519.198,3.078,521.08,5.307,521.08,8.484z M512.797,8.643c0,2.293,1.233,4.332,3.415,4.332c2.181,0,3.414-2.008,3.414-4.428
			c0-2.133-1.105-4.346-3.398-4.346C513.934,4.201,512.797,6.318,512.797,8.643z"/>
		<path d="M524.555,3.269h1.39v7.129c0,2.83-1.39,3.698-3.224,3.698c-0.521,0-1.138-0.109-1.47-0.252l0.189-1.123
			c0.283,0.111,0.694,0.205,1.17,0.205c1.232,0,1.943-0.553,1.943-2.639L524.555,3.269L524.555,3.269z"/>
		<path d="M533.739,8.928h-4.125v3.841h4.615v1.153h-6.009V3.269h5.771v1.153h-4.377v3.367h4.125V8.928L533.739,8.928z"/>
		<path d="M543.444,13.59c-0.49,0.254-1.519,0.506-2.814,0.506c-3.004,0-5.248-1.895-5.248-5.405c0-3.353,2.262-5.597,5.564-5.597
			c1.313,0,2.166,0.285,2.528,0.475l-0.348,1.122c-0.506-0.252-1.248-0.442-2.136-0.442c-2.495,0-4.155,1.598-4.155,4.396
			c0,2.624,1.502,4.284,4.078,4.284c0.854,0,1.707-0.174,2.26-0.442L543.444,13.59z"/>
		<path d="M547.204,4.438h-3.24v-1.17h7.887v1.17h-3.256v9.483h-1.391V4.438z"/>
		<path d="M556.386,3.426c0.602-0.143,1.566-0.236,2.514-0.236c1.375,0,2.263,0.236,2.91,0.773c0.553,0.412,0.9,1.043,0.9,1.881
			c0,1.045-0.695,1.945-1.803,2.341v0.047c1.012,0.237,2.197,1.075,2.197,2.655c0,0.918-0.363,1.629-0.916,2.135
			c-0.729,0.68-1.931,0.996-3.668,0.996c-0.949,0-1.677-0.063-2.136-0.127L556.386,3.426L556.386,3.426z M557.763,7.789h1.248
			c1.438,0,2.293-0.775,2.293-1.803c0-1.232-0.934-1.738-2.324-1.738c-0.633,0-0.996,0.047-1.217,0.094V7.789z M557.763,12.879
			c0.283,0.047,0.662,0.063,1.152,0.063c1.424,0,2.736-0.521,2.736-2.069c0-1.438-1.25-2.057-2.752-2.057h-1.138L557.763,12.879
			L557.763,12.879z"/>
		<path d="M566.864,13.922V9.401l-3.383-6.133h1.582l1.502,2.938c0.395,0.807,0.727,1.455,1.059,2.199h0.031
			c0.285-0.697,0.664-1.393,1.074-2.199l1.534-2.938h1.55l-3.558,6.116v4.537H566.864z"/>
		<path d="M579.571,9.147v1.013h-3.904V9.147H579.571z"/>
	</g>
</g>
</svg>
