<?xml version="1.0" encoding="utf-8"?>
<!-- Generator: Adobe Illustrator 15.0.0, SVG Export Plug-In . SVG Version: 6.00 Build 0)  -->
<!DOCTYPE svg PUBLIC "-//W3C//DTD SVG 1.1//EN" "http://www.w3.org/Graphics/SVG/1.1/DTD/svg11.dtd">
<svg version="1.1" id="Layer_1" xmlns="http://www.w3.org/2000/svg" xmlns:xlink="http://www.w3.org/1999/xlink" x="0px" y="0px"
	 width="39.667px" height="22.501px" viewBox="-22.792 -27.667 39.667 22.501"
	 enable-background="new -22.792 -27.667 39.667 22.501" xml:space="preserve">
<g>
	<defs>
		<path id="SVGID_1_" d="M-20.498-26.739c-0.745,0-1.351,0.604-1.351,1.352v2.347c0,0.748,0.605,1.354,1.351,1.354h35.252
			c0.748,0,1.353-0.606,1.353-1.354v-2.347c0-0.748-0.604-1.352-1.353-1.352H-20.498z"/>
	</defs>
	<clipPath id="SVGID_2_">
		<use xlink:href="#SVGID_1_"  overflow="visible"/>
	</clipPath>
	
		<linearGradient id="SVGID_3_" gradientUnits="userSpaceOnUse" x1="-675.4429" y1="5524.5991" x2="-674.4429" y2="5524.5991" gradientTransform="matrix(37.9565 0 0 -37.9565 25615.6133 209670.3594)">
		<stop  offset="0" style="stop-color:#00B4DF"/>
		<stop  offset="1" style="stop-color:#0085AE"/>
	</linearGradient>
	<rect x="-21.849" y="-26.738" clip-path="url(#SVGID_2_)" fill="url(#SVGID_3_)" width="37.955" height="5.053"/>
</g>
<g>
	<defs>
		<path id="SVGID_4_" d="M-20.498-18.915c-0.745,0-1.351,0.606-1.351,1.352v2.35c0,0.745,0.605,1.352,1.351,1.352h35.252
			c0.748,0,1.353-0.606,1.353-1.352v-2.35c0-0.745-0.604-1.352-1.353-1.352H-20.498z"/>
	</defs>
	<clipPath id="SVGID_5_">
		<use xlink:href="#SVGID_4_"  overflow="visible"/>
	</clipPath>
	
		<linearGradient id="SVGID_6_" gradientUnits="userSpaceOnUse" x1="-675.4429" y1="5524.6011" x2="-674.4429" y2="5524.6011" gradientTransform="matrix(37.9565 0 0 -37.9565 25615.6133 209678.2344)">
		<stop  offset="0" style="stop-color:#00B4DF"/>
		<stop  offset="1" style="stop-color:#0085AE"/>
	</linearGradient>
	<rect x="-21.849" y="-18.915" clip-path="url(#SVGID_5_)" fill="url(#SVGID_6_)" width="37.955" height="5.054"/>
</g>
<g>
	<defs>
		<path id="SVGID_7_" d="M-20.498-11.087c-0.745,0-1.351,0.604-1.351,1.352v2.347c0,0.748,0.605,1.354,1.351,1.354h35.252
			c0.748,0,1.353-0.606,1.353-1.354v-2.347c0-0.748-0.604-1.352-1.353-1.352H-20.498z"/>
	</defs>
	<clipPath id="SVGID_8_">
		<use xlink:href="#SVGID_7_"  overflow="visible"/>
	</clipPath>
	
		<linearGradient id="SVGID_9_" gradientUnits="userSpaceOnUse" x1="-675.4429" y1="5524.6001" x2="-674.4429" y2="5524.6001" gradientTransform="matrix(37.9565 0 0 -37.9565 25615.6133 209686.0469)">
		<stop  offset="0" style="stop-color:#00B4DF"/>
		<stop  offset="1" style="stop-color:#0085AE"/>
	</linearGradient>
	<rect x="-21.849" y="-11.087" clip-path="url(#SVGID_8_)" fill="url(#SVGID_9_)" width="37.955" height="5.054"/>
</g>
</svg>
