<?xml version="1.0" encoding="utf-8"?>
<!-- Generator: Adobe Illustrator 15.0.0, SVG Export Plug-In . SVG Version: 6.00 Build 0)  -->
<!DOCTYPE svg PUBLIC "-//W3C//DTD SVG 1.1//EN" "http://www.w3.org/Graphics/SVG/1.1/DTD/svg11.dtd">
<svg version="1.1" id="Layer_1" xmlns="http://www.w3.org/2000/svg" xmlns:xlink="http://www.w3.org/1999/xlink" x="0px" y="0px"
	 width="256.367px" height="132.421px" viewBox="0 0 256.367 132.421" enable-background="new 0 0 256.367 132.421"
	 xml:space="preserve">
<g>
	<g>
		<path fill="#727474" d="M177.819,80.98c-0.498-0.805-1.196-1.424-2.108-1.867c-0.91-0.443-1.994-0.666-3.25-0.675h-6.343v16.081
			h2.826v-5.168h3.193c0.891,0,1.723-0.119,2.496-0.354s1.459-0.578,2.049-1.041c0.586-0.459,1.049-1.033,1.383-1.719
			c0.33-0.684,0.5-1.477,0.506-2.38v-0.045C178.563,82.727,178.313,81.785,177.819,80.98 M175.698,83.93
			c-0.004,0.563-0.145,1.063-0.424,1.487c-0.279,0.426-0.678,0.766-1.195,1.012c-0.518,0.24-1.133,0.367-1.85,0.371h-3.285v-5.789
			h3.285c0.709,0,1.32,0.107,1.838,0.324c0.521,0.219,0.92,0.537,1.203,0.965c0.283,0.426,0.424,0.955,0.428,1.582V83.93z"/>
		<path fill="#727474" d="M150.731,94.773c1.053,0,2.006-0.148,2.857-0.451c0.846-0.303,1.57-0.756,2.178-1.355
			c0.604-0.6,1.067-1.35,1.389-2.256c0.326-0.896,0.486-1.949,0.49-3.147V78.44h-2.824v9.259c-0.004,0.985-0.17,1.813-0.489,2.477
			c-0.326,0.666-0.789,1.164-1.392,1.502c-0.604,0.332-1.324,0.502-2.162,0.502c-0.848,0-1.569-0.176-2.18-0.527
			c-0.605-0.35-1.068-0.865-1.396-1.545c-0.321-0.686-0.485-1.525-0.489-2.521V78.44h-2.826v9.259
			c0.004,1.168,0.164,2.188,0.479,3.073c0.318,0.881,0.777,1.619,1.375,2.213c0.601,0.595,1.314,1.037,2.156,1.339
			C148.739,94.623,149.683,94.773,150.731,94.773"/>
		<path fill="#727474" d="M135.728,83.832c-0.26-0.822-0.642-1.576-1.131-2.266c-0.494-0.689-1.082-1.285-1.771-1.795
			c-0.688-0.512-1.459-0.904-2.313-1.186c-0.854-0.277-1.778-0.422-2.771-0.424c-0.988,0.002-1.915,0.145-2.771,0.428
			c-0.861,0.283-1.636,0.684-2.327,1.195c-0.693,0.512-1.29,1.118-1.784,1.811c-0.498,0.693-0.877,1.451-1.146,2.277
			c-0.266,0.828-0.398,1.691-0.402,2.604v0.045c0.004,0.905,0.135,1.774,0.398,2.597c0.265,0.823,0.64,1.582,1.129,2.271
			c0.494,0.688,1.084,1.284,1.771,1.797c0.689,0.511,1.462,0.901,2.316,1.185c0.854,0.278,1.775,0.422,2.769,0.426
			c0.993-0.004,1.915-0.146,2.772-0.43s1.635-0.683,2.332-1.195c0.689-0.512,1.286-1.117,1.784-1.812
			c0.491-0.692,0.877-1.454,1.142-2.276c0.264-0.828,0.396-1.697,0.401-2.604v-0.045C136.123,85.523,135.993,84.656,135.728,83.832
			 M133.164,86.523c-0.005,0.785-0.136,1.521-0.397,2.205s-0.634,1.283-1.113,1.807c-0.48,0.521-1.053,0.926-1.717,1.217
			c-0.658,0.295-1.394,0.445-2.194,0.449c-0.801-0.004-1.532-0.158-2.2-0.457c-0.666-0.293-1.24-0.707-1.729-1.232
			c-0.486-0.52-0.866-1.133-1.13-1.814c-0.269-0.689-0.402-1.431-0.406-2.214v-0.047c0.004-0.786,0.136-1.521,0.398-2.206
			c0.261-0.684,0.636-1.285,1.112-1.807c0.481-0.52,1.056-0.926,1.718-1.217c0.659-0.295,1.394-0.445,2.19-0.447
			c0.808,0.002,1.535,0.158,2.203,0.455c0.666,0.295,1.244,0.709,1.73,1.234c0.482,0.521,0.863,1.129,1.129,1.816
			c0.268,0.689,0.4,1.428,0.404,2.212L133.164,86.523L133.164,86.523z"/>
		<path fill="#727474" d="M108.127,88.431c0.759-0.215,1.419-0.535,1.992-0.961c0.574-0.428,1.023-0.965,1.351-1.615
			c0.323-0.65,0.489-1.412,0.494-2.292v-0.047c-0.005-0.705-0.119-1.349-0.351-1.935c-0.229-0.586-0.556-1.1-0.983-1.535
			c-0.521-0.51-1.169-0.902-1.947-1.184c-0.781-0.279-1.678-0.422-2.692-0.426h-7.167v16.082h2.825v-5.604h3.537l3.952,5.604h3.332
			L108.127,88.431z M105.784,86.41h-4.137v-5.398h4.111c0.7,0,1.299,0.105,1.793,0.307c0.498,0.207,0.877,0.508,1.142,0.9
			c0.264,0.396,0.397,0.884,0.397,1.457v0.048c-0.005,0.547-0.139,1.021-0.41,1.422c-0.269,0.399-0.646,0.71-1.142,0.935
			C107.045,86.294,106.459,86.406,105.784,86.41"/>
		<path fill="#727474" d="M83.849,94.794c0.949-0.008,1.834-0.123,2.651-0.348c0.819-0.23,1.565-0.529,2.243-0.904
			c0.68-0.379,1.283-0.791,1.813-1.252v-6.754h-6.847v2.459h4.113v3.008c-0.498,0.373-1.081,0.666-1.742,0.887
			c-0.664,0.217-1.379,0.328-2.141,0.332c-0.823-0.004-1.57-0.148-2.241-0.434c-0.67-0.283-1.243-0.683-1.726-1.197
			c-0.479-0.518-0.85-1.123-1.11-1.818c-0.257-0.695-0.387-1.463-0.392-2.293v-0.047c0.005-0.771,0.14-1.506,0.397-2.188
			c0.261-0.681,0.63-1.281,1.101-1.808c0.471-0.521,1.021-0.931,1.654-1.229c0.631-0.295,1.319-0.447,2.063-0.451
			c0.678,0,1.273,0.072,1.8,0.211c0.522,0.143,1.003,0.339,1.438,0.599c0.433,0.259,0.856,0.56,1.264,0.915l1.792-2.136
			c-0.543-0.47-1.118-0.866-1.715-1.188s-1.261-0.572-1.983-0.74c-0.729-0.168-1.554-0.252-2.479-0.252
			c-0.975,0.002-1.879,0.147-2.725,0.434c-0.846,0.281-1.605,0.682-2.288,1.197c-0.686,0.514-1.271,1.117-1.759,1.812
			c-0.489,0.696-0.864,1.456-1.125,2.278c-0.264,0.826-0.396,1.691-0.396,2.595v0.048c0.004,0.939,0.131,1.825,0.383,2.659
			c0.257,0.832,0.623,1.591,1.103,2.272c0.482,0.688,1.065,1.275,1.746,1.773c0.682,0.498,1.451,0.881,2.311,1.15
			C81.907,94.654,82.841,94.791,83.849,94.794"/>
		<polygon fill="#EA7F23" points="178.298,69.647 173.481,69.867 157.998,34.461 167.37,34.461 176.032,54.262 185.179,34.461 
			194.552,34.461 		"/>
		<g>
			<g>
				<g>
					<g>
						<defs>
							<path id="SVGID_1_" d="M51.027,34.668L35.631,69.314L27.021,56.86c5.214-1.39,7.883-4.953,7.99-10.73
								c0-3.408-1.028-6.139-3.102-8.182c-2.066-2.047-4.734-3.135-8.003-3.279H3.86v34.979h8.721l0.036-27.334h10.274
								c1.985,0.323,3.004,1.614,3.052,3.853c-0.048,2.01-0.97,3.24-2.775,3.686h-3.709l-3.181,7.135l8.923,12.662h10.28
								l-0.018,0.037h9.643l10.97-24.499l4.762,10.442h-7.467l3.453,7.752h7.481l2.848,6.305h9.283L60.836,34.671L51.027,34.668
								L51.027,34.668z M125.433,34.668l-15.563,35.017h9.642l10.973-24.499l4.758,10.441h-7.465l3.454,7.752h7.48l2.85,6.306h9.282
								L135.24,34.668H125.433z M200.903,34.668l-15.563,35.017h9.641l10.971-24.499l4.761,10.441h-7.467l3.454,7.752h7.48
								l2.848,6.306h9.283l-15.6-35.017H200.903z M142.265,34.635l14.893,35.011l-0.002,0.002h0.002h9.115h0.258l2.318-5.021
								l-4.586-10.521l-2.354,5.145l-10.322-24.615L142.265,34.635L142.265,34.635z M216.769,34.635l3.354,7.533h10.431v27.479
								h8.758V42.168h10.908v-7.533H216.769z M99.959,34.592v0.043h-0.006v20.357L85.908,34.635v-0.037h-8.729v0.037h-0.036
								l0.036,0.07v34.941h8.729V49.035l14.045,20.335v0.275h8.937l-0.131-0.215V34.635h-0.005v-0.043H99.959z"/>
						</defs>
						<clipPath id="SVGID_2_">
							<use xlink:href="#SVGID_1_"  overflow="visible"/>
						</clipPath>
						
							<radialGradient id="SVGID_3_" cx="-2833.7446" cy="-210.7822" r="1.0008" gradientTransform="matrix(124.7803 0 0 124.7803 353722.5625 26353.6309)" gradientUnits="userSpaceOnUse">
							<stop  offset="0" style="stop-color:#478CCA"/>
							<stop  offset="1" style="stop-color:#1A488D"/>
						</radialGradient>
						<rect x="3.86" y="34.592" clip-path="url(#SVGID_2_)" fill="url(#SVGID_3_)" width="246.359" height="35.093"/>
					</g>
				</g>
			</g>
		</g>
		<path fill="#6D6E71" d="M37.347,127.076h-5.459v-13.043h5.237c2.548,0,4.03,1.428,4.03,3.664c0,1.447-0.952,2.381-1.611,2.691
			c0.788,0.365,1.797,1.189,1.797,2.932C41.341,125.757,39.673,127.076,37.347,127.076 M36.925,116.304h-2.49v3.006h2.49
			c1.082,0,1.686-0.605,1.686-1.502C38.61,116.908,38.007,116.304,36.925,116.304 M37.091,121.599h-2.656v3.205h2.656
			c1.152,0,1.703-0.73,1.703-1.611C38.796,122.314,38.245,121.599,37.091,121.599"/>
		<polygon fill="#6D6E71" points="45.407,127.076 45.407,114.033 53.997,114.033 53.997,116.304 47.952,116.304 47.952,119.363 
			53.101,119.363 53.101,121.634 47.952,121.634 47.952,124.804 53.997,124.804 53.997,127.076 		"/>
		<polygon fill="#6D6E71" points="72.938,127.076 72.938,119.474 70.447,124.419 68.726,124.419 66.216,119.474 66.216,127.076 
			63.668,127.076 63.668,114.033 66.179,114.033 69.586,121.085 72.976,114.033 75.484,114.033 75.484,127.076 		"/>
		<path fill="#6D6E71" d="M87.849,125.812c-0.879,0.879-1.979,1.375-3.479,1.375c-1.503,0-2.619-0.496-3.499-1.375
			c-1.301-1.301-1.317-2.768-1.317-5.258s0.019-3.957,1.317-5.258c0.88-0.879,1.996-1.373,3.499-1.373
			c1.502,0,2.602,0.494,3.479,1.373c1.301,1.301,1.338,2.768,1.338,5.258S89.149,124.511,87.849,125.812 M86,116.892
			c-0.365-0.422-0.935-0.697-1.631-0.697c-0.695,0-1.265,0.275-1.648,0.697c-0.478,0.549-0.623,1.172-0.623,3.662
			s0.146,3.098,0.623,3.646c0.386,0.422,0.953,0.715,1.648,0.715c0.696,0,1.266-0.293,1.631-0.715
			c0.478-0.55,0.642-1.154,0.642-3.646C86.64,118.064,86.476,117.441,86,116.892"/>
		<path fill="#6D6E71" d="M100.177,127.076l-2.545-5.203h-1.834v5.203h-2.546v-13.043h5.11c2.655,0,4.231,1.813,4.231,3.994
			c0,1.832-1.118,2.967-2.383,3.426l2.911,5.623H100.177z M98.198,116.304h-2.397v3.443h2.397c1.117,0,1.853-0.715,1.853-1.722
			C100.048,117.019,99.315,116.304,98.198,116.304"/>
		<polygon fill="#6D6E71" points="106.698,127.076 106.698,114.033 115.291,114.033 115.291,116.304 109.244,116.304 
			109.244,119.363 114.392,119.363 114.392,121.634 109.244,121.634 109.244,124.804 115.291,124.804 115.291,127.076 		"/>
		<rect x="118.972" y="124.365" fill="#6D6E71" width="2.729" height="2.711"/>
		<path fill="#6D6E71" d="M140.293,125.169c-0.936,1.301-2.161,1.906-3.938,1.906h-4.707v-13.043h4.707
			c1.776,0,3.006,0.604,3.938,1.905c0.807,1.112,0.824,2.453,0.824,4.612C141.118,122.714,141.099,124.052,140.293,125.169
			 M138.041,117.111c-0.423-0.531-1.045-0.809-1.904-0.809h-1.94v8.5h1.94c0.859,0,1.481-0.273,1.904-0.807
			c0.478-0.568,0.53-1.394,0.53-3.443C138.571,118.501,138.517,117.677,138.041,117.111"/>
		<path fill="#6D6E71" d="M153.041,125.812c-0.879,0.879-1.979,1.375-3.479,1.375s-2.619-0.496-3.498-1.375
			c-1.302-1.301-1.318-2.768-1.318-5.258s0.021-3.957,1.318-5.258c0.879-0.879,1.996-1.373,3.498-1.373
			c1.504,0,2.604,0.494,3.479,1.373c1.302,1.301,1.339,2.768,1.339,5.258S154.343,124.511,153.041,125.812 M151.192,116.892
			c-0.367-0.422-0.934-0.697-1.631-0.697s-1.264,0.275-1.647,0.697c-0.478,0.549-0.623,1.172-0.623,3.662s0.146,3.098,0.623,3.646
			c0.385,0.422,0.95,0.715,1.647,0.715s1.264-0.293,1.631-0.715c0.478-0.55,0.642-1.154,0.642-3.646
			C151.834,118.064,151.668,117.441,151.192,116.892"/>
		<polygon fill="#6D6E71" points="173.429,127.076 173.429,119.474 170.938,124.419 169.216,124.419 166.709,119.474 
			166.709,127.076 164.161,127.076 164.161,114.033 166.67,114.033 170.077,121.085 173.466,114.033 175.976,114.033 
			175.976,127.076 		"/>
		<path fill="#6D6E71" d="M188.341,125.812c-0.88,0.879-1.98,1.375-3.482,1.375s-2.617-0.496-3.498-1.375
			c-1.301-1.301-1.317-2.768-1.317-5.258s0.021-3.957,1.317-5.258c0.881-0.879,1.996-1.373,3.498-1.373
			c1.504,0,2.604,0.494,3.482,1.373c1.301,1.301,1.336,2.768,1.336,5.258S189.642,124.511,188.341,125.812 M186.491,116.892
			c-0.366-0.422-0.936-0.697-1.633-0.697c-0.694,0-1.264,0.275-1.646,0.697c-0.478,0.549-0.623,1.172-0.623,3.662
			s0.146,3.098,0.623,3.646c0.385,0.422,0.951,0.715,1.646,0.715c0.697,0,1.267-0.293,1.633-0.715
			c0.476-0.55,0.642-1.154,0.642-3.646C187.132,118.064,186.966,117.441,186.491,116.892"/>
		<path fill="#6D6E71" d="M200.668,127.076l-2.547-5.203h-1.83v5.203h-2.549v-13.043h5.111c2.656,0,4.23,1.813,4.23,3.994
			c0,1.832-1.115,2.967-2.383,3.426l2.912,5.623H200.668z M198.69,116.304h-2.397v3.443h2.397c1.117,0,1.853-0.715,1.853-1.722
			C200.541,117.019,199.808,116.304,198.69,116.304"/>
		<polygon fill="#6D6E71" points="207.188,127.076 207.188,114.033 215.78,114.033 215.78,116.304 209.735,116.304 209.735,119.363 
			214.884,119.363 214.884,121.634 209.735,121.634 209.735,124.804 215.78,124.804 215.78,127.076 		"/>
		<rect x="219.461" y="124.365" fill="#6D6E71" width="2.729" height="2.711"/>
		<rect x="31.89" y="103.275" fill="#6D6E71" width="190.303" height="1.479"/>
	</g>
	<g>
		<path d="M84.227,11.147v1.013h-3.904v-1.013H84.227z"/>
		<path d="M89.25,5.395c0.664-0.109,1.532-0.205,2.642-0.205c1.358,0,2.354,0.314,2.985,0.885c0.569,0.506,0.935,1.28,0.935,2.229
			c0,0.965-0.284,1.725-0.822,2.277c-0.742,0.773-1.912,1.168-3.256,1.168c-0.411,0-0.791-0.016-1.104-0.094v4.268h-1.377V5.395
			H89.25z M90.625,10.531c0.302,0.079,0.681,0.108,1.14,0.108c1.66,0,2.672-0.819,2.672-2.26c0-1.422-1.012-2.102-2.514-2.102
			c-0.603,0-1.062,0.047-1.298,0.108V10.531z"/>
		<path d="M97.658,5.41c0.695-0.127,1.707-0.222,2.643-0.222c1.47,0,2.434,0.284,3.082,0.868c0.521,0.478,0.838,1.201,0.838,2.039
			c0,1.394-0.885,2.324-1.992,2.703v0.049c0.807,0.283,1.297,1.043,1.55,2.148c0.349,1.486,0.602,2.514,0.822,2.926h-1.423
			c-0.174-0.316-0.411-1.217-0.696-2.545c-0.315-1.471-0.899-2.023-2.149-2.072h-1.296v4.617H97.66L97.658,5.41L97.658,5.41z
			 M99.034,10.264h1.406c1.471,0,2.402-0.807,2.402-2.022c0-1.375-0.996-1.978-2.449-1.978c-0.664,0-1.123,0.048-1.359,0.111V10.264
			z"/>
		<path d="M115.268,10.484c0,3.65-2.229,5.611-4.947,5.611c-2.83,0-4.79-2.197-4.79-5.422c0-3.383,2.086-5.598,4.933-5.598
			C113.386,5.078,115.268,7.307,115.268,10.484z M106.984,10.643c0,2.293,1.233,4.332,3.415,4.332c2.181,0,3.414-2.008,3.414-4.428
			c0-2.133-1.104-4.346-3.397-4.346C108.121,6.201,106.984,8.318,106.984,10.643z"/>
		<path d="M118.742,5.269h1.391v7.129c0,2.83-1.391,3.698-3.225,3.698c-0.521,0-1.138-0.108-1.47-0.252l0.189-1.123
			c0.282,0.111,0.693,0.205,1.17,0.205c1.231,0,1.942-0.553,1.942-2.639L118.742,5.269L118.742,5.269z"/>
		<path d="M127.927,10.928h-4.125v3.841h4.614v1.153h-6.009V5.269h5.771v1.153h-4.377v3.367h4.125V10.928L127.927,10.928z"/>
		<path d="M137.632,15.59c-0.49,0.254-1.52,0.506-2.814,0.506c-3.004,0-5.248-1.895-5.248-5.405c0-3.353,2.263-5.597,5.564-5.597
			c1.313,0,2.166,0.285,2.527,0.476l-0.348,1.122c-0.506-0.252-1.248-0.442-2.136-0.442c-2.495,0-4.155,1.598-4.155,4.396
			c0,2.624,1.502,4.284,4.078,4.284c0.854,0,1.707-0.174,2.26-0.441L137.632,15.59z"/>
		<path d="M141.392,6.438h-3.24v-1.17h7.888v1.17h-3.257v9.483h-1.391V6.438L141.392,6.438z"/>
		<path d="M150.573,5.426c0.603-0.143,1.566-0.236,2.515-0.236c1.375,0,2.263,0.236,2.909,0.773c0.554,0.412,0.9,1.043,0.9,1.881
			c0,1.045-0.695,1.945-1.803,2.341v0.047c1.012,0.237,2.196,1.075,2.196,2.655c0,0.918-0.362,1.629-0.916,2.135
			c-0.729,0.68-1.931,0.996-3.668,0.996c-0.948,0-1.677-0.063-2.136-0.127L150.573,5.426L150.573,5.426z M151.95,9.789h1.248
			c1.438,0,2.293-0.775,2.293-1.803c0-1.232-0.934-1.738-2.323-1.738c-0.634,0-0.996,0.047-1.218,0.094V9.789L151.95,9.789z
			 M151.95,14.879c0.283,0.047,0.662,0.063,1.152,0.063c1.424,0,2.736-0.521,2.736-2.069c0-1.438-1.25-2.057-2.753-2.057h-1.138
			L151.95,14.879L151.95,14.879z"/>
		<path d="M161.052,15.922v-4.521l-3.384-6.133h1.582l1.502,2.938c0.396,0.807,0.728,1.455,1.06,2.199h0.031
			c0.284-0.697,0.664-1.394,1.073-2.199l1.534-2.938H166l-3.558,6.116v4.537L161.052,15.922L161.052,15.922z"/>
		<path d="M173.759,11.147v1.013h-3.904v-1.013H173.759z"/>
	</g>
</g>
</svg>
