<?xml version="1.0" encoding="utf-8"?>
<!-- Generator: Adobe Illustrator 15.0.0, SVG Export Plug-In . SVG Version: 6.00 Build 0)  -->
<!DOCTYPE svg PUBLIC "-//W3C//DTD SVG 1.1//EN" "http://www.w3.org/Graphics/SVG/1.1/DTD/svg11.dtd">
<svg version="1.1" id="Layer_1" xmlns="http://www.w3.org/2000/svg" xmlns:xlink="http://www.w3.org/1999/xlink" x="0px" y="0px"
	 width="253.5px" height="131.083px" viewBox="0 -30.583 253.5 131.083" enable-background="new 0 -30.583 253.5 131.083"
	 xml:space="preserve">
<g>
	<g>
		<path fill="#727474" d="M176.959,49.52c-0.498-0.804-1.197-1.424-2.109-1.868c-0.91-0.443-1.994-0.666-3.25-0.674h-6.342v16.081
			h2.826v-5.168h3.193c0.891,0,1.723-0.119,2.496-0.353c0.775-0.234,1.459-0.579,2.049-1.042c0.586-0.459,1.049-1.033,1.383-1.718
			c0.33-0.684,0.5-1.477,0.506-2.38v-0.045C177.703,51.266,177.453,50.324,176.959,49.52 M174.838,52.469
			c-0.004,0.563-0.145,1.063-0.424,1.489s-0.678,0.765-1.195,1.011c-0.518,0.241-1.133,0.367-1.85,0.372h-3.285v-5.79h3.285
			c0.709,0,1.32,0.107,1.838,0.325c0.521,0.218,0.92,0.537,1.203,0.965c0.283,0.425,0.424,0.954,0.428,1.581V52.469z"/>
		<path fill="#727474" d="M149.871,63.313c1.053,0,2.006-0.148,2.857-0.451c0.846-0.303,1.572-0.756,2.178-1.356
			c0.604-0.6,1.068-1.35,1.389-2.255c0.326-0.898,0.486-1.949,0.49-3.15v-9.121h-2.824v9.259c-0.004,0.986-0.17,1.813-0.49,2.477
			c-0.326,0.666-0.789,1.164-1.391,1.501c-0.604,0.333-1.324,0.502-2.162,0.502c-0.848,0-1.57-0.176-2.18-0.528
			c-0.605-0.348-1.068-0.864-1.396-1.545c-0.322-0.684-0.486-1.524-0.49-2.521v-9.145h-2.826v9.259
			c0.004,1.167,0.164,2.188,0.48,3.074c0.318,0.881,0.777,1.619,1.375,2.213c0.6,0.594,1.314,1.037,2.156,1.337
			C147.879,63.163,148.822,63.313,149.871,63.313"/>
		<path fill="#727474" d="M134.867,52.372c-0.26-0.822-0.641-1.577-1.131-2.266c-0.494-0.689-1.082-1.286-1.771-1.795
			c-0.689-0.511-1.459-0.904-2.314-1.185c-0.855-0.278-1.779-0.422-2.771-0.425c-0.99,0.003-1.915,0.146-2.771,0.429
			c-0.861,0.283-1.635,0.683-2.327,1.195c-0.693,0.512-1.29,1.118-1.784,1.81c-0.498,0.694-0.877,1.451-1.145,2.278
			c-0.265,0.828-0.399,1.692-0.403,2.604v0.045c0.004,0.907,0.135,1.776,0.399,2.597c0.264,0.823,0.639,1.582,1.129,2.271
			c0.494,0.689,1.084,1.286,1.772,1.797c0.69,0.51,1.462,0.902,2.317,1.183c0.853,0.28,1.776,0.422,2.768,0.426
			c0.993-0.004,1.915-0.147,2.772-0.429c0.859-0.284,1.635-0.682,2.332-1.195c0.691-0.513,1.287-1.118,1.785-1.811
			c0.492-0.693,0.877-1.455,1.141-2.278c0.264-0.827,0.396-1.696,0.402-2.604v-0.045C135.262,54.063,135.133,53.195,134.867,52.372
			 M132.303,55.063c-0.004,0.785-0.135,1.521-0.398,2.205c-0.262,0.684-0.633,1.284-1.113,1.807
			c-0.482,0.52-1.053,0.925-1.717,1.217c-0.658,0.295-1.393,0.444-2.194,0.448c-0.801-0.004-1.533-0.157-2.202-0.456
			c-0.665-0.294-1.239-0.708-1.729-1.233c-0.486-0.522-0.866-1.133-1.129-1.817c-0.269-0.688-0.403-1.429-0.407-2.213v-0.046
			c0.004-0.786,0.135-1.521,0.398-2.206c0.261-0.683,0.636-1.285,1.114-1.805c0.481-0.52,1.054-0.926,1.716-1.217
			c0.661-0.295,1.394-0.445,2.192-0.447c0.806,0.002,1.535,0.157,2.203,0.455c0.666,0.295,1.244,0.708,1.73,1.233
			c0.484,0.522,0.865,1.129,1.129,1.817c0.268,0.689,0.402,1.428,0.406,2.213V55.063z"/>
		<path fill="#727474" d="M107.268,56.971c0.757-0.214,1.418-0.535,1.992-0.961c0.574-0.428,1.023-0.965,1.349-1.615
			c0.325-0.65,0.491-1.412,0.495-2.293v-0.047c-0.004-0.705-0.12-1.348-0.35-1.933c-0.229-0.587-0.556-1.1-0.984-1.536
			c-0.521-0.509-1.168-0.903-1.948-1.183c-0.781-0.28-1.677-0.422-2.692-0.426h-7.167v16.082h2.825v-5.604h3.537l3.953,5.604h3.331
			L107.268,56.971z M104.924,54.95h-4.137v-5.399h4.112c0.7,0,1.298,0.104,1.793,0.306c0.497,0.207,0.876,0.506,1.141,0.901
			c0.263,0.397,0.397,0.883,0.397,1.458v0.046c-0.004,0.547-0.137,1.022-0.409,1.422c-0.269,0.401-0.647,0.711-1.142,0.935
			C106.186,54.835,105.6,54.946,104.924,54.95"/>
		<path fill="#727474" d="M82.988,63.335c0.949-0.008,1.834-0.123,2.652-0.349c0.82-0.227,1.566-0.529,2.244-0.903
			c0.678-0.379,1.283-0.792,1.811-1.253v-6.754H82.85v2.459h4.113v3.009c-0.498,0.372-1.081,0.666-1.743,0.886
			c-0.663,0.217-1.378,0.329-2.14,0.333c-0.823-0.004-1.57-0.149-2.241-0.434c-0.67-0.283-1.244-0.683-1.726-1.197
			c-0.479-0.518-0.85-1.123-1.11-1.819c-0.257-0.696-0.387-1.463-0.392-2.293v-0.047c0.005-0.772,0.14-1.505,0.399-2.187
			c0.259-0.681,0.628-1.281,1.099-1.808c0.471-0.521,1.022-0.93,1.654-1.229c0.631-0.295,1.321-0.448,2.063-0.452
			c0.678,0,1.274,0.073,1.8,0.211c0.523,0.142,1.003,0.338,1.439,0.598c0.432,0.257,0.857,0.559,1.263,0.915l1.792-2.136
			c-0.543-0.468-1.118-0.866-1.715-1.19c-0.596-0.322-1.26-0.571-1.983-0.739c-0.728-0.169-1.554-0.253-2.481-0.253
			c-0.973,0.003-1.879,0.149-2.723,0.434c-0.846,0.282-1.607,0.682-2.289,1.197c-0.685,0.514-1.271,1.118-1.758,1.812
			c-0.49,0.696-0.865,1.456-1.125,2.278c-0.264,0.826-0.395,1.692-0.398,2.596v0.047c0.004,0.941,0.131,1.826,0.383,2.66
			c0.257,0.832,0.623,1.59,1.103,2.273c0.482,0.688,1.065,1.275,1.746,1.773c0.681,0.498,1.451,0.881,2.31,1.151
			C81.047,63.193,81.98,63.331,82.988,63.335"/>
		<polygon fill="#EA7F23" points="177.438,38.187 172.621,38.406 157.137,3 166.51,3 175.172,22.802 184.318,3 193.691,3 		"/>
		<g>
			<g>
				<defs>
					<path id="SVGID_1_" d="M50.167,3.208L34.77,37.853l-8.61-12.454c5.214-1.388,7.883-4.953,7.99-10.73
						c0-3.409-1.028-6.139-3.1-8.183c-2.068-2.046-4.736-3.134-8.003-3.278H3v34.979h8.721l0.036-27.334h10.274
						c1.986,0.323,3.004,1.615,3.052,3.852c-0.048,2.01-0.97,3.241-2.776,3.686h-3.71l-3.179,7.135l8.923,12.662h10.28l-0.018,0.037
						h9.643l10.97-24.499l4.761,10.442h-7.466l3.453,7.752h7.481l2.848,6.305h9.283l-15.6-35.016L50.167,3.208L50.167,3.208z
						 M124.572,3.208L109.01,38.224h9.64l10.973-24.499l4.758,10.442h-7.465l3.454,7.752h7.482l2.848,6.305h9.283L134.381,3.208
						H124.572z M200.043,3.208L184.48,38.224h9.641l10.971-24.499l4.76,10.442h-7.467l3.455,7.752h7.48l2.848,6.305h9.283
						l-15.6-35.016H200.043z M141.404,3.174l14.893,35.011l-0.002,0.002h0.002h9.115h0.258l2.318-5.021l-4.586-10.521l-2.354,5.145
						L150.725,3.174H141.404z M215.908,3.174l3.355,7.534h10.43v27.479h8.758V10.708h10.908V3.174H215.908z M99.099,3.132v0.042
						h-0.005v20.358L85.049,3.174V3.137h-8.73v0.037h-0.037l0.037,0.071v34.941h8.73V17.575l14.045,20.336v0.275h8.936l-0.131-0.215
						V3.174h-0.004V3.132H99.099z"/>
				</defs>
				<clipPath id="SVGID_2_">
					<use xlink:href="#SVGID_1_"  overflow="visible"/>
				</clipPath>
				
					<radialGradient id="SVGID_3_" cx="-1645.8662" cy="-199.0518" r="1.0005" gradientTransform="matrix(124.7803 0 0 124.7803 205497.8906 24858.4707)" gradientUnits="userSpaceOnUse">
					<stop  offset="0" style="stop-color:#478CCA"/>
					<stop  offset="1" style="stop-color:#1A488D"/>
				</radialGradient>
				<rect x="3" y="3.132" clip-path="url(#SVGID_2_)" fill="url(#SVGID_3_)" width="246.359" height="35.092"/>
			</g>
		</g>
		<path fill="#6D6E71" d="M36.486,95.615h-5.459V82.572h5.239c2.547,0,4.03,1.429,4.03,3.664c0,1.447-0.952,2.381-1.612,2.692
			c0.788,0.366,1.796,1.19,1.796,2.931C40.48,94.297,38.813,95.615,36.486,95.615 M36.065,84.845h-2.491v3.005h2.491
			c1.081,0,1.685-0.605,1.685-1.502C37.75,85.448,37.146,84.845,36.065,84.845 M36.23,90.139h-2.656v3.206h2.656
			c1.154,0,1.704-0.732,1.704-1.612C37.935,90.854,37.385,90.139,36.23,90.139"/>
		<polygon fill="#6D6E71" points="44.547,95.616 44.547,82.573 53.137,82.573 53.137,84.845 47.092,84.845 47.092,87.902 
			52.24,87.902 52.24,90.175 47.092,90.175 47.092,93.345 53.137,93.345 53.137,95.616 		"/>
		<polygon fill="#6D6E71" points="72.078,95.616 72.078,88.014 69.587,92.96 67.865,92.96 65.355,88.014 65.355,95.616 
			62.809,95.616 62.809,82.573 65.318,82.573 68.727,89.626 72.115,82.573 74.624,82.573 74.624,95.616 		"/>
		<path fill="#6D6E71" d="M86.988,94.352c-0.879,0.879-1.978,1.375-3.479,1.375c-1.503,0-2.62-0.496-3.499-1.375
			c-1.301-1.3-1.318-2.767-1.318-5.257c0-2.491,0.018-3.957,1.318-5.258c0.879-0.879,1.996-1.374,3.499-1.374
			c1.502,0,2.601,0.495,3.479,1.374c1.301,1.301,1.338,2.767,1.338,5.258C88.326,91.585,88.289,93.052,86.988,94.352 M85.139,85.432
			c-0.365-0.422-0.934-0.697-1.63-0.697c-0.697,0-1.265,0.275-1.649,0.697c-0.477,0.549-0.623,1.172-0.623,3.663
			c0,2.49,0.146,3.097,0.623,3.646c0.385,0.422,0.952,0.715,1.649,0.715c0.696,0,1.265-0.293,1.63-0.715
			c0.477-0.549,0.641-1.154,0.641-3.646C85.779,86.604,85.615,85.98,85.139,85.432"/>
		<path fill="#6D6E71" d="M99.316,95.615l-2.545-5.202h-1.833v5.202h-2.546V82.573h5.111c2.655,0,4.231,1.813,4.231,3.993
			c0,1.832-1.118,2.967-2.382,3.426l2.912,5.623H99.316z M97.338,84.845h-2.399v3.443h2.399c1.117,0,1.851-0.715,1.851-1.722
			C99.188,85.559,98.455,84.845,97.338,84.845"/>
		<polygon fill="#6D6E71" points="105.838,95.616 105.838,82.573 114.429,82.573 114.429,84.845 108.384,84.845 108.384,87.902 
			113.531,87.902 113.531,90.175 108.384,90.175 108.384,93.345 114.429,93.345 114.429,95.616 		"/>
		<rect x="118.111" y="92.904" fill="#6D6E71" width="2.729" height="2.711"/>
		<path fill="#6D6E71" d="M139.434,93.71c-0.936,1.301-2.162,1.906-3.939,1.906h-4.707V82.573h4.707
			c1.777,0,3.006,0.604,3.939,1.905c0.805,1.115,0.824,2.453,0.824,4.615S140.238,92.593,139.434,93.71 M137.18,85.65
			c-0.422-0.531-1.045-0.807-1.904-0.807h-1.941v8.5h1.941c0.859,0,1.482-0.275,1.904-0.807c0.477-0.568,0.531-1.393,0.531-3.443
			C137.711,87.042,137.656,86.218,137.18,85.65"/>
		<path fill="#6D6E71" d="M152.182,94.352c-0.879,0.879-1.979,1.375-3.48,1.375s-2.619-0.496-3.498-1.375
			c-1.301-1.3-1.318-2.767-1.318-5.257c0-2.491,0.02-3.957,1.318-5.258c0.879-0.879,1.996-1.374,3.498-1.374
			c1.504,0,2.604,0.495,3.48,1.374c1.301,1.301,1.338,2.767,1.338,5.258C153.52,91.585,153.482,93.052,152.182,94.352
			 M150.332,85.432c-0.367-0.422-0.934-0.697-1.631-0.697s-1.264,0.275-1.648,0.697c-0.477,0.549-0.623,1.172-0.623,3.663
			c0,2.49,0.146,3.097,0.623,3.646c0.385,0.422,0.951,0.715,1.648,0.715s1.264-0.293,1.631-0.715
			c0.477-0.549,0.641-1.154,0.641-3.646S150.809,85.98,150.332,85.432"/>
		<polygon fill="#6D6E71" points="172.568,95.616 172.568,88.014 170.078,92.96 168.355,92.96 165.848,88.014 165.848,95.616 
			163.301,95.616 163.301,82.573 165.811,82.573 169.217,89.626 172.605,82.573 175.115,82.573 175.115,95.616 		"/>
		<path fill="#6D6E71" d="M187.48,94.352c-0.879,0.879-1.98,1.375-3.482,1.375s-2.617-0.496-3.498-1.375
			c-1.301-1.3-1.318-2.767-1.318-5.257c0-2.491,0.02-3.957,1.318-5.258c0.881-0.879,1.996-1.374,3.498-1.374
			c1.504,0,2.604,0.495,3.482,1.374c1.301,1.301,1.336,2.767,1.336,5.258C188.816,91.585,188.781,93.052,187.48,94.352
			 M185.631,85.432c-0.367-0.422-0.936-0.697-1.633-0.697c-0.695,0-1.264,0.275-1.646,0.697c-0.477,0.549-0.623,1.172-0.623,3.663
			c0,2.49,0.146,3.097,0.623,3.646c0.385,0.422,0.951,0.715,1.646,0.715c0.697,0,1.266-0.293,1.633-0.715
			c0.475-0.549,0.641-1.154,0.641-3.646S186.105,85.98,185.631,85.432"/>
		<path fill="#6D6E71" d="M199.809,95.615l-2.547-5.202h-1.83v5.202h-2.549V82.573h5.111c2.656,0,4.23,1.813,4.23,3.993
			c0,1.832-1.115,2.967-2.381,3.426l2.912,5.623H199.809z M197.83,84.845h-2.398v3.443h2.398c1.117,0,1.852-0.715,1.852-1.722
			C199.682,85.559,198.947,84.845,197.83,84.845"/>
		<polygon fill="#6D6E71" points="206.328,95.616 206.328,82.573 214.92,82.573 214.92,84.845 208.875,84.845 208.875,87.902 
			214.023,87.902 214.023,90.175 208.875,90.175 208.875,93.345 214.92,93.345 214.92,95.616 		"/>
		<rect x="218.602" y="92.904" fill="#6D6E71" width="2.729" height="2.711"/>
		<rect x="31.029" y="71.814" fill="#6D6E71" width="190.303" height="1.479"/>
	</g>
	<g>
		<path d="M83.366-20.313v1.012h-3.904v-1.012H83.366z"/>
		<path d="M88.39-26.066c0.664-0.11,1.533-0.205,2.641-0.205c1.359,0,2.355,0.315,2.987,0.885c0.569,0.506,0.933,1.28,0.933,2.229
			c0,0.964-0.284,1.723-0.822,2.276c-0.742,0.774-1.912,1.169-3.256,1.169c-0.411,0-0.791-0.016-1.106-0.095v4.269H88.39V-26.066z
			 M89.766-20.929c0.3,0.079,0.68,0.11,1.138,0.11c1.66,0,2.672-0.821,2.672-2.26c0-1.423-1.012-2.103-2.514-2.103
			c-0.601,0-1.06,0.047-1.296,0.11V-20.929z"/>
		<path d="M96.798-26.051c0.695-0.126,1.707-0.221,2.641-0.221c1.47,0,2.434,0.284,3.082,0.869c0.521,0.475,0.838,1.201,0.838,2.039
			c0,1.392-0.885,2.324-1.992,2.703v0.048c0.807,0.284,1.297,1.043,1.55,2.149c0.348,1.486,0.601,2.514,0.822,2.925h-1.423
			c-0.174-0.316-0.411-1.217-0.696-2.545c-0.315-1.471-0.9-2.023-2.149-2.071h-1.296v4.616h-1.376V-26.051z M98.174-21.197h1.406
			c1.471,0,2.403-0.807,2.403-2.023c0-1.375-0.996-1.977-2.45-1.977c-0.664,0-1.123,0.048-1.359,0.111V-21.197z"/>
		<path d="M114.407-20.976c0,3.651-2.229,5.611-4.947,5.611c-2.83,0-4.79-2.197-4.79-5.422c0-3.383,2.086-5.597,4.932-5.597
			C112.526-26.383,114.407-24.153,114.407-20.976z M106.124-20.818c0,2.293,1.233,4.332,3.415,4.332
			c2.181,0,3.414-2.008,3.414-4.427c0-2.134-1.106-4.347-3.398-4.347C107.261-25.26,106.124-23.142,106.124-20.818z"/>
		<path d="M117.882-26.192h1.39v7.129c0,2.83-1.39,3.699-3.224,3.699c-0.521,0-1.138-0.11-1.47-0.253l0.189-1.122
			c0.284,0.11,0.695,0.205,1.17,0.205c1.233,0,1.944-0.553,1.944-2.64V-26.192z"/>
		<path d="M127.066-20.533h-4.125v3.841h4.616v1.154h-6.009v-10.654h5.771v1.153h-4.377v3.367h4.125V-20.533z"/>
		<path d="M136.771-15.87c-0.49,0.253-1.518,0.506-2.814,0.506c-3.004,0-5.248-1.896-5.248-5.406c0-3.352,2.262-5.596,5.564-5.596
			c1.313,0,2.166,0.284,2.529,0.474l-0.348,1.122c-0.506-0.252-1.248-0.442-2.135-0.442c-2.496,0-4.156,1.597-4.156,4.395
			c0,2.624,1.502,4.284,4.078,4.284c0.854,0,1.707-0.174,2.26-0.442L136.771-15.87z"/>
		<path d="M140.531-25.022h-3.24v-1.17h7.887v1.17h-3.256v9.484h-1.391V-25.022z"/>
		<path d="M149.713-26.034c0.602-0.143,1.566-0.237,2.514-0.237c1.375,0,2.262,0.237,2.91,0.774c0.553,0.411,0.9,1.043,0.9,1.881
			c0,1.044-0.695,1.944-1.803,2.34v0.047c1.012,0.237,2.197,1.075,2.197,2.656c0,0.917-0.363,1.628-0.916,2.134
			c-0.729,0.68-1.93,0.996-3.668,0.996c-0.949,0-1.676-0.063-2.135-0.126V-26.034z M151.09-21.672h1.248
			c1.438,0,2.293-0.774,2.293-1.802c0-1.233-0.934-1.739-2.324-1.739c-0.633,0-0.996,0.048-1.217,0.095V-21.672z M151.09-16.581
			c0.283,0.047,0.662,0.063,1.152,0.063c1.424,0,2.736-0.521,2.736-2.07c0-1.438-1.25-2.056-2.752-2.056h-1.137V-16.581z"/>
		<path d="M160.191-15.538v-4.521l-3.383-6.133h1.582l1.502,2.939c0.395,0.807,0.727,1.455,1.059,2.198h0.031
			c0.285-0.696,0.664-1.392,1.074-2.198l1.535-2.939h1.549l-3.557,6.117v4.537H160.191z"/>
		<path d="M172.898-20.313v1.012h-3.904v-1.012H172.898z"/>
	</g>
</g>
</svg>
